<svg width="68" height="68" viewBox="0 0 68 68" fill="none" xmlns="http://www.w3.org/2000/svg">
<rect width="68" height="68" rx="20" transform="matrix(1 0 0 -1 0 68)" fill="#5A9BE9" fill-opacity="0.25"/>
<path d="M52.7988 54H47.9141C47.2501 54 46.7129 53.4628 46.7129 52.7988V51.5977H36.8823C36.3847 52.9928 35.0639 54 33.5 54C31.9361 54 30.6153 52.9928 30.1177 51.5977H20.2871V52.7988C20.2871 53.4628 19.7499 54 19.0859 54H14.2012C13.5372 54 13 53.4628 13 52.7988V47.9941C13 47.3302 13.5372 46.793 14.2012 46.793H19.0859C19.7499 46.793 20.2871 47.3302 20.2871 47.9941V49.2113H25.2202C21.0516 46.6071 18.3029 42.0331 17.9744 36.9101C16.5331 36.4384 15.4824 35.0968 15.4824 33.5C15.4824 31.5129 17.0989 29.8965 19.0859 29.8965C21.073 29.8965 22.6895 31.5129 22.6895 33.5C22.6895 35.0327 21.7236 36.3358 20.372 36.8558C20.7818 42.5674 24.7672 47.3814 30.3107 48.7549C30.9103 47.5956 32.1072 46.793 33.5 46.793C34.8928 46.793 36.0897 47.5956 36.6893 48.7549C42.2328 47.3815 46.2182 42.5675 46.628 36.8559C45.2764 36.3358 44.3105 35.0327 44.3105 33.5C44.3105 31.5129 45.927 29.8965 47.9141 29.8965C49.9011 29.8965 51.5176 31.5129 51.5176 33.5C51.5176 35.0968 50.4669 36.4384 49.0256 36.9101C48.6971 42.0331 45.9484 46.5911 41.7798 49.1953H46.7129V47.9941C46.7129 47.3302 47.2501 46.793 47.9141 46.793H52.7988C53.4628 46.793 54 47.3302 54 47.9941V52.7988C54 53.4628 53.4628 54 52.7988 54Z" fill="#5398E9"/>
<path d="M41.6719 14.4899C41.0436 16.4125 39.2335 17.8848 37.1034 17.8848H29.8964C27.7663 17.8848 25.9562 16.4125 25.3279 14.4899C25.0857 13.7486 25.7163 13 26.4963 13H40.5035C41.2834 13 41.9141 13.7486 41.6719 14.4899Z" fill="#5398E9"/>
<path d="M44.1088 29.3616L34.7012 43.473V32.0776C36.0963 31.5801 37.1035 30.2593 37.1035 28.6953C37.1035 26.7083 35.4871 25.0918 33.5 25.0918C31.513 25.0918 29.8965 26.7083 29.8965 28.6953C29.8965 30.2593 30.9037 31.5801 32.2988 32.0776V43.473L22.8913 29.3616C22.5734 28.8854 22.6367 28.2507 23.0414 27.846C25.2465 25.6409 26.6561 22.8001 27.2 19.7529C28.0344 20.0914 28.942 20.2871 29.8965 20.2871H37.1035C38.0581 20.2871 38.9656 20.0915 39.8 19.7531C40.344 22.8005 41.7535 25.6409 43.9586 27.846C44.3633 28.2507 44.4267 28.8854 44.1088 29.3616Z" fill="#5398E9"/>
<path d="M33.5 29.8965C32.8373 29.8965 32.2988 29.358 32.2988 28.6953C32.2988 28.0326 32.8373 27.4941 33.5 27.4941C34.1627 27.4941 34.7012 28.0326 34.7012 28.6953C34.7012 29.358 34.1627 29.8965 33.5 29.8965Z" fill="#5398E9"/>
</svg>
