<svg width="128" height="128" viewBox="0 0 128 128" fill="none" xmlns="http://www.w3.org/2000/svg">
<rect width="128" height="128" rx="40" fill="url(#paint0_linear)"/>
<path fill-rule="evenodd" clip-rule="evenodd" d="M39.2671 115.08C38.3114 114.411 37.9982 113.138 38.5345 112.102L56.6108 77.1824C57.2018 76.0406 58.6066 75.5941 59.7484 76.1852C60.8902 76.7762 61.3367 78.181 60.7456 79.3228L50.6728 98.7817L82.9856 63.6427L58.2708 59.2503C57.0049 59.0253 56.1611 57.8167 56.3861 56.5508C56.6111 55.285 57.8197 54.4411 59.0855 54.6661L87.9802 59.8014C88.8171 59.9502 89.5065 60.5433 89.7785 61.3486C90.0504 62.154 89.8618 63.0436 89.2864 63.6693L42.3155 114.748C41.526 115.607 40.2228 115.749 39.2671 115.08Z" fill="white"/>
<path fill-rule="evenodd" clip-rule="evenodd" d="M88.6337 13.4207C89.5894 14.0895 89.9026 15.3624 89.3664 16.3983L71.2901 51.3183C70.6991 52.4601 69.2943 52.9066 68.1525 52.3156C67.0107 51.7245 66.5642 50.3197 67.1553 49.1779L77.2281 29.7191L44.9153 64.858L69.6301 69.2504C70.8959 69.4754 71.7398 70.684 71.5148 71.9499C71.2898 73.2158 70.0812 74.0596 68.8153 73.8346L39.9207 68.6993C39.0837 68.5506 38.3944 67.9575 38.1224 67.1521C37.8504 66.3467 38.039 65.4571 38.6144 64.8314L85.5854 13.7523C86.3749 12.8936 87.678 12.7519 88.6337 13.4207Z" fill="white"/>
<defs>
<linearGradient id="paint0_linear" x1="0" y1="0" x2="128" y2="128" gradientUnits="userSpaceOnUse">
<stop stop-color="#F7B733"/>
<stop offset="0.377834" stop-color="#F8982C"/>
<stop offset="1" stop-color="#FC4A1A"/>
</linearGradient>
</defs>
</svg>
