<svg width="68" height="68" viewBox="0 0 68 68" fill="none" xmlns="http://www.w3.org/2000/svg">
<rect width="68" height="68" rx="20" transform="matrix(1 0 0 -1 0 68)" fill="#2BBC5D" fill-opacity="0.25"/>
<g clip-path="url(#clip0)">
<path d="M49.8523 47.1688L37.7998 54.1197C35.7645 55.2935 33.2356 55.2934 31.2002 54.1197L19.1478 47.1688C17.1086 45.9929 15.8418 43.7998 15.8418 41.4455V27.5546C15.8418 25.2003 17.1086 23.0072 19.1477 21.8312L31.2002 14.8804C33.2359 13.7063 35.7648 13.7067 37.7998 14.8804L49.8522 21.8312C51.8914 23.0072 53.1582 25.2003 53.1582 27.5546V41.4455C53.1582 43.7997 51.8914 45.9928 49.8523 47.1688ZM49.9551 27.5546C49.9551 26.3419 49.3026 25.2122 48.2521 24.6065L36.1997 17.6556C35.1512 17.0509 33.8487 17.0509 32.8003 17.6556L20.7478 24.6065C19.6974 25.2123 19.0449 26.3419 19.0449 27.5546V41.4455C19.0449 42.6581 19.6974 43.7878 20.7479 44.3935L32.8003 51.3443C33.8488 51.9491 35.1517 51.9489 36.1997 51.3443L48.2522 44.3936C49.3026 43.7878 49.9551 42.6582 49.9551 41.4455V27.5546Z" fill="#2BBC5D"/>
<path d="M32.978 35.7229L27.0297 40.7569C26.3546 41.3283 25.3439 41.2441 24.7725 40.5688C24.2012 39.8934 24.2854 38.8827 24.9606 38.3113L29.4641 34.5L24.9606 30.6889C24.2854 30.1174 24.2013 29.1068 24.7725 28.4314C25.3453 27.7546 26.3562 27.6733 27.0297 28.2434L32.978 33.2773C33.7347 33.9177 33.7326 35.0843 32.978 35.7229Z" fill="#2BBC5D"/>
<path d="M43.005 31.0679H35.7983C34.9138 31.0679 34.1968 30.3508 34.1968 29.4661C34.1968 28.5814 34.9138 27.8643 35.7983 27.8643H43.005C43.8894 27.8643 44.6065 28.5814 44.6065 29.4661C44.6065 30.3508 43.8895 31.0679 43.005 31.0679Z" fill="#2BBC5D"/>
</g>
<defs>
<clipPath id="clip0">
<rect width="41" height="41" fill="white" transform="matrix(1 0 0 -1 14 55)"/>
</clipPath>
</defs>
</svg>
