<svg width="68" height="68" viewBox="0 0 68 68" fill="none" xmlns="http://www.w3.org/2000/svg">
<rect width="68" height="68" rx="20" transform="matrix(1 0 0 -1 0 68)" fill="#BE49E8" fill-opacity="0.25"/>
<path d="M53.4375 54C36.0723 54 21.7889 40.6408 20.2753 23.6634C23.1607 27.7327 26.6953 31.6482 31.1079 36.1496C31.4359 36.4879 31.9791 36.4947 32.3157 36.1616C32.6523 35.8319 32.6574 35.2903 32.3276 34.9537C31.6631 34.2772 30.9883 33.5751 30.3101 32.8644C29.9223 32.4595 29.543 32.0564 29.1706 31.66C29.1023 31.5866 29.0339 31.5131 28.9656 31.438C23.5126 25.5989 19.6142 20.5167 16.7834 14.2044C16.5904 13.7739 16.7834 13.2682 17.2123 13.0752C17.3267 13.0239 17.4446 13 17.5624 13C17.8888 13 18.2014 13.1879 18.3431 13.5039C19.3511 15.7504 20.5212 17.8346 21.8367 19.8624C33.7677 20.1682 44.6276 26.8051 50.3198 37.3659C50.4616 37.6307 50.4547 37.9502 50.3009 38.2099C50.1455 38.4661 49.867 38.625 49.5664 38.625H46.4026L52.0759 41.8674C52.2553 41.9699 52.3937 42.1356 52.4603 42.3304C53.6766 45.8666 54.2916 49.5054 54.2916 53.1458C54.2916 53.6173 53.909 54 53.4375 54Z" fill="#BE49E8"/>
</svg>
