<svg cache-id="cfacb2e4585846bc949cedf68f4b0940" id="e8pgLAwFKTC1" xmlns="http://www.w3.org/2000/svg" xmlns:xlink="http://www.w3.org/1999/xlink" viewBox="0 0 486 612" shape-rendering="geometricPrecision" text-rendering="geometricPrecision"><defs><linearGradient id="e8pgLAwFKTC113-fill" x1="124.913000" y1="241.348000" x2="477.692000" y2="241.348000" spreadMethod="pad" gradientUnits="userSpaceOnUse"><stop id="e8pgLAwFKTC113-fill-0" offset="21%" stop-color="rgba(255,255,255,0)"/><stop id="e8pgLAwFKTC113-fill-1" offset="100%" stop-color="rgba(255,255,255,0.2)"/></linearGradient></defs><g id="e8pgLAwFKTC2"><path id="e8pgLAwFKTC3" d="M26.173600,584.827000L0,569.870000L39.162300,547.483000L65.323600,562.428000L26.173600,584.827000Z" opacity="0.4" fill="rgb(214,216,229)" stroke="none" stroke-width="1"/><path id="e8pgLAwFKTC4" d="M26.712600,554.680000L5.036130,542.183000L26.712600,529.686000L48.376900,542.183000L26.712600,554.680000Z" fill="rgb(214,216,229)" stroke="none" stroke-width="1"/><path id="e8pgLAwFKTC5" d="M26.712600,579.674000L5.036130,567.177000L5.036130,542.183000L26.712600,554.680000L26.712600,579.674000Z" fill="rgb(177,182,196)" stroke="none" stroke-width="1"/><path id="e8pgLAwFKTC6" d="M48.389400,567.177000L26.712900,579.674000L26.712900,554.680000L48.389400,542.183000L48.389400,567.177000Z" fill="rgb(196,199,214)" stroke="none" stroke-width="1"/><path id="e8pgLAwFKTC7" d="M55.839300,559.368000C57.713700,559.889000,59.718600,559.647000,61.414600,558.695000C62.762500,558.695000,70.065600,555.623000,71.058200,558.242000C71.928200,560.531000,68.766800,562.660000,67.075800,563.064000C63.399700,563.958000,60.654900,565.794000,59.172200,566.112000C58.607500,566.314000,58.001900,566.376000,57.408100,566.290000C56.814300,566.205000,56.250500,565.976000,55.765700,565.623000C54.711900,564.521000,54.810000,560.678000,55.839300,559.368000Z" fill="rgb(87,71,53)" stroke="none" stroke-width="1"/><path id="e8pgLAwFKTC8" d="M59.172500,565.415000C60.655100,565.096000,63.387700,563.260000,67.076000,562.367000C68.485200,562.024000,70.923600,560.482000,71.168700,558.634000C71.499500,560.751000,68.644500,562.624000,67.076000,563.003000C63.399900,563.897000,60.655100,565.733000,59.172500,566.051000C58.607800,566.253000,58.002100,566.314000,57.408300,566.229000C56.814500,566.144000,56.250700,565.914000,55.766000,565.561000C55.532400,565.314000,55.367600,565.011000,55.288100,564.680000C55.833300,565.097000,56.468500,565.380000,57.143000,565.508000C57.817500,565.635000,58.512500,565.603000,59.172500,565.415000Z" fill="rgb(248,152,44)" stroke="none" stroke-width="1"/><path id="e8pgLAwFKTC9" d="M42.679100,552.306000C44.553500,552.827000,46.558400,552.585000,48.254500,551.632000C49.602400,551.632000,56.832000,548.560000,57.885800,551.179000C58.755800,553.468000,55.594300,555.598000,53.915600,556.002000C50.239500,556.895000,47.494800,558.731000,46.012100,559.050000C45.447400,559.252000,44.841700,559.313000,44.247900,559.228000C43.654200,559.142000,43.090300,558.913000,42.605600,558.560000C41.551800,557.520000,41.662100,553.676000,42.679100,552.306000Z" fill="rgb(87,71,53)" stroke="none" stroke-width="1"/><path id="e8pgLAwFKTC10" d="M46.011800,558.413000C47.494500,558.095000,50.227000,556.259000,53.915400,555.366000C55.324500,555.023000,57.763000,553.481000,58.008000,551.632000C58.338900,553.750000,55.483800,555.623000,53.915400,556.002000C50.239300,556.895000,47.494500,558.731000,46.011800,559.050000C45.447100,559.252000,44.841400,559.313000,44.247700,559.228000C43.653900,559.142000,43.090000,558.913000,42.605300,558.560000C42.374500,558.316000,42.210000,558.017000,42.127400,557.691000C42.674600,558.104000,43.310300,558.384000,43.984400,558.509000C44.658500,558.635000,45.352600,558.602000,46.011800,558.413000Z" fill="rgb(248,152,44)" stroke="none" stroke-width="1"/><path id="e8pgLAwFKTC11" d="M22.179000,543.236000C27.876900,545.684000,33.207100,546.124000,37.630700,543.774000L42.164500,541.155000C42.434100,547.006000,42.691400,552.624000,42.691400,552.624000C42.691400,552.624000,46.171400,555.255000,48.818200,552.905000C48.818200,552.905000,49.381800,544.704000,49.957700,536.626000L54.712100,533.884000C54.597600,534.316000,54.535800,534.760000,54.528300,535.206000C54.528300,536.736000,55.631100,559.539000,55.631100,559.539000C55.631100,559.539000,59.135600,561.620000,61.843700,559.282000C61.843700,559.282000,63.669500,532.856000,64.086100,528.682000C64.551700,523.933000,59.282700,521.595000,55.937500,522.807000L50.840000,524.704000L51.085100,521.767000C51.563000,517.018000,46.281700,514.680000,42.948700,515.892000C39.909800,517.005000,19.372900,524.692000,19.372900,524.692000C19.500700,526.667000,19.742100,528.632000,20.095900,530.580000L11.984000,529.894000C11.555100,537.471000,16.493300,540.739000,22.179000,543.236000ZM36.344100,530.102000L41.772400,526.981000C41.681900,527.363000,41.624500,527.752000,41.600800,528.144000L36.344100,530.102000Z" fill="rgb(248,152,44)" stroke="none" stroke-width="1"/><path id="e8pgLAwFKTC12" d="M7.597170,506.736000C7.597170,506.736000,8.258860,516.810000,9.582240,518.266000C10.905600,519.723000,15.390400,520.714000,15.390400,520.714000L18.833700,526.320000C18.833700,526.320000,15.684500,508.352000,14.998300,507.960000C14.312100,507.568000,7.597170,506.736000,7.597170,506.736000Z" fill="rgb(255,206,169)" stroke="none" stroke-width="1"/><path id="e8pgLAwFKTC13" d="M14.226300,495.536000C13.391300,495.147000,12.442700,495.075000,11.558500,495.334000C10.674200,495.593000,9.914910,496.166000,9.422880,496.944000C8.197520,499.037000,6.837380,506.246000,6.714840,507.470000C7.224150,508.157000,7.898830,508.705000,8.676370,509.062000C9.453910,509.420000,10.309200,509.575000,11.162900,509.514000L14.226300,495.536000Z" fill="rgb(237,237,237)" stroke="none" stroke-width="1"/><path id="e8pgLAwFKTC14" d="M15.439600,495.720000C17.179600,495.806000,18.478500,496.246000,18.699100,495.720000C18.885900,494.823000,19.016800,493.916000,19.091200,493.003000C18.895100,492.489000,18.723600,491.950000,18.723600,491.950000C16.530200,490.604000,15.844000,488.278000,15.549900,485.487000C15.059700,480.775000,17.608500,476.662000,22.313800,476.173000C26.749600,475.708000,30.009100,478.817000,30.891300,483.088000C31.357000,485.194000,32.288200,489.208000,31.026100,492.648000C30.327700,494.582000,29.420900,496.124000,28.575400,496.418000C27.697600,496.399000,26.821700,496.326000,25.953100,496.197000C25.953100,496.197000,25.720300,497.507000,25.561000,498.339000C25.401700,499.172000,25.450800,499.625000,27.129500,500.653000C28.808200,501.681000,24.605300,503.798000,21.860500,503.590000C19.115700,503.382000,16.027800,501.730000,15.182300,499.918000C14.165200,497.935000,14.238800,495.610000,15.439600,495.720000Z" fill="rgb(255,206,169)" stroke="none" stroke-width="1"/><path id="e8pgLAwFKTC15" d="M59.625600,526.504000C59.624600,526.752000,59.558500,526.996000,59.433800,527.210000C59.309100,527.425000,59.130200,527.603000,58.914900,527.728000L45.619800,535.390000C45.404200,535.516000,45.158900,535.582000,44.909100,535.582000C44.659400,535.582000,44.414100,535.516000,44.198400,535.390000L25.573000,524.643000C25.356100,524.521000,25.175800,524.343000,25.050800,524.128000C24.925900,523.913000,24.860800,523.668000,24.862300,523.419000L24.862300,523.321000L59.625600,526.504000Z" fill="rgb(229,229,229)" stroke="none" stroke-width="1"/><path id="e8pgLAwFKTC16" d="M58.915000,527.728000L45.619900,535.390000C45.405800,535.520000,45.159700,535.588000,44.909200,535.586000L44.909200,526.504000L59.613400,526.504000C59.613700,526.751000,59.549400,526.994000,59.426900,527.208000C59.304400,527.423000,59.128000,527.602000,58.915000,527.728000Z" fill="rgb(229,229,229)" stroke="none" stroke-width="1"/><path id="e8pgLAwFKTC17" d="M45.411500,534.692000C45.261500,534.782000,45.090000,534.829000,44.915200,534.829000C44.740500,534.829000,44.569000,534.782000,44.419000,534.692000L25.046100,523.529000C24.801000,523.382000,24.801000,523.150000,25.046100,523.015000L39.309200,514.778000L59.625600,526.504000L45.411500,534.692000Z" fill="rgb(244,244,244)" stroke="none" stroke-width="1"/><path id="e8pgLAwFKTC18" d="M32.998500,526.504000L33.096600,526.553000L39.309100,530.139000L42.715600,528.168000L42.813600,528.119000L36.503000,524.484000L32.998500,526.504000Z" fill="rgb(191,191,191)" stroke="none" stroke-width="1"/><path id="e8pgLAwFKTC19" d="M33.096700,526.553000L39.309200,530.139000L42.715700,528.168000L36.503200,524.594000L33.096700,526.553000Z" fill="rgb(229,229,229)" stroke="none" stroke-width="1"/><path id="e8pgLAwFKTC20" d="M54.356800,527.079000L55.251300,527.593000C55.294500,527.617000,55.343000,527.629000,55.392200,527.629000C55.441500,527.629000,55.489900,527.617000,55.533100,527.593000L56.390900,527.103000C56.476700,527.103000,56.488900,526.981000,56.390900,526.944000L55.496400,526.418000C55.452300,526.397000,55.404200,526.386000,55.355500,526.386000C55.306700,526.386000,55.258600,526.397000,55.214600,526.418000L54.356800,526.920000C54.295500,526.969000,54.283300,527.042000,54.356800,527.079000Z" fill="rgb(58,44,109)" stroke="none" stroke-width="1"/><path id="e8pgLAwFKTC21" d="M53.094600,526.320000L53.989100,526.834000C54.032300,526.858000,54.080800,526.870000,54.130000,526.870000C54.179300,526.870000,54.227700,526.858000,54.270900,526.834000L55.128700,526.344000C55.214500,526.344000,55.214500,526.222000,55.128700,526.185000L54.234200,525.671000C54.191000,525.648000,54.142500,525.635000,54.093300,525.635000C54.044000,525.635000,53.995600,525.648000,53.952300,525.671000L53.094600,526.161000C53.033300,526.234000,53.021100,526.320000,53.094600,526.320000Z" fill="rgb(58,44,109)" stroke="none" stroke-width="1"/><path id="e8pgLAwFKTC22" d="M51.820200,525.622000L52.714700,526.136000C52.760900,526.157000,52.811000,526.168000,52.861700,526.168000C52.912500,526.168000,52.962600,526.157000,53.008800,526.136000L53.854300,525.647000C53.940000,525.647000,53.952300,525.524000,53.854300,525.475000L52.959800,524.961000C52.916500,524.938000,52.868100,524.925000,52.818800,524.925000C52.769600,524.925000,52.721200,524.938000,52.677900,524.961000L51.820200,525.451000C51.758900,525.500000,51.746700,525.573000,51.820200,525.622000Z" fill="rgb(58,44,109)" stroke="none" stroke-width="1"/><path id="e8pgLAwFKTC23" d="M50.558000,524.888000L51.452500,525.402000C51.496600,525.423000,51.544700,525.433000,51.593400,525.433000C51.642100,525.433000,51.690200,525.423000,51.734300,525.402000L52.592100,524.912000C52.677800,524.912000,52.690100,524.790000,52.592100,524.741000L51.697600,524.227000C51.651400,524.206000,51.601200,524.195000,51.550500,524.195000C51.499800,524.195000,51.449700,524.206000,51.403500,524.227000L50.558000,524.717000C50.496700,524.766000,50.484500,524.839000,50.558000,524.888000Z" fill="rgb(58,44,109)" stroke="none" stroke-width="1"/><path id="e8pgLAwFKTC24" d="M49.283600,524.153000L50.190300,524.668000C50.233500,524.691000,50.282000,524.703000,50.331200,524.703000C50.380500,524.703000,50.428900,524.691000,50.472200,524.668000L51.317700,524.178000C51.403400,524.178000,51.415700,524.056000,51.317700,524.019000L50.423100,523.493000C50.379100,523.472000,50.330900,523.461000,50.282200,523.461000C50.233500,523.461000,50.185400,523.472000,50.141300,523.493000L49.283600,523.994000C49.222300,524.043000,49.210000,524.117000,49.283600,524.153000Z" fill="rgb(58,44,109)" stroke="none" stroke-width="1"/><path id="e8pgLAwFKTC25" d="M48.021400,523.419000L48.915900,523.945000C48.959900,523.966000,49.008100,523.977000,49.056800,523.977000C49.105500,523.977000,49.153600,523.966000,49.197700,523.945000L50.055400,523.444000C50.141200,523.444000,50.153500,523.321000,50.055400,523.284000L49.160900,522.770000C49.115500,522.747000,49.065100,522.734000,49.013900,522.734000C48.962700,522.734000,48.912300,522.747000,48.866900,522.770000L48.021400,523.260000C47.960100,523.309000,47.947800,523.382000,48.021400,523.419000Z" fill="rgb(58,44,109)" stroke="none" stroke-width="1"/><path id="e8pgLAwFKTC26" d="M46.759200,522.648000L47.653700,523.162000C47.697800,523.183000,47.745900,523.194000,47.794700,523.194000C47.843400,523.194000,47.891500,523.183000,47.935600,523.162000L48.793300,522.672000C48.879100,522.672000,48.879100,522.550000,48.793300,522.501000L47.898800,521.987000C47.854700,521.966000,47.806600,521.956000,47.757900,521.956000C47.709200,521.956000,47.661100,521.966000,47.617000,521.987000L46.759200,522.477000C46.685700,522.575000,46.685700,522.648000,46.759200,522.648000Z" fill="rgb(58,44,109)" stroke="none" stroke-width="1"/><path id="e8pgLAwFKTC27" d="M45.485200,521.963000L46.379700,522.477000C46.423000,522.500000,46.471400,522.512000,46.520600,522.512000C46.569900,522.512000,46.618300,522.500000,46.661600,522.477000L47.519300,521.987000C47.605100,521.987000,47.617300,521.865000,47.519300,521.828000L46.624800,521.302000C46.580700,521.281000,46.532600,521.270000,46.483900,521.270000C46.435200,521.270000,46.387000,521.281000,46.343000,521.302000L45.485200,521.803000C45.424000,521.852000,45.411700,521.926000,45.485200,521.963000Z" fill="rgb(58,44,109)" stroke="none" stroke-width="1"/><path id="e8pgLAwFKTC28" d="M44.222800,521.228000L45.117300,521.742000C45.160500,521.766000,45.209000,521.778000,45.258200,521.778000C45.307400,521.778000,45.355900,521.766000,45.399100,521.742000L46.256900,521.253000C46.342600,521.253000,46.342600,521.130000,46.256900,521.093000L45.337900,520.567000C45.294600,520.544000,45.246200,520.531000,45.196900,520.531000C45.147700,520.531000,45.099200,520.544000,45.056000,520.567000L44.198300,521.057000C44.112500,521.118000,44.112500,521.191000,44.222800,521.228000Z" fill="rgb(58,44,109)" stroke="none" stroke-width="1"/><path id="e8pgLAwFKTC29" d="M42.948500,520.506000L43.843100,521.020000C43.889200,521.041000,43.939400,521.052000,43.990100,521.052000C44.040800,521.052000,44.091000,521.041000,44.137100,521.020000L44.982600,520.530000C45.068400,520.530000,45.080700,520.408000,44.982600,520.359000L44.112600,519.833000C44.069400,519.809000,44.021000,519.797000,43.971700,519.797000C43.922500,519.797000,43.874000,519.809000,43.830800,519.833000L42.973100,520.322000C42.887300,520.384000,42.887300,520.457000,42.948500,520.506000Z" fill="rgb(58,44,109)" stroke="none" stroke-width="1"/><path id="e8pgLAwFKTC30" d="M41.662100,519.772000L42.556600,520.286000C42.600700,520.306000,42.648800,520.317000,42.697500,520.317000C42.746300,520.317000,42.794400,520.306000,42.838400,520.286000L43.696200,519.796000C43.782000,519.796000,43.794200,519.674000,43.696200,519.625000L42.887500,519.098000C42.841300,519.077000,42.791100,519.067000,42.740400,519.067000C42.689700,519.067000,42.639600,519.077000,42.593400,519.098000L41.747900,519.588000C41.662100,519.649000,41.662100,519.723000,41.662100,519.772000Z" fill="rgb(58,44,109)" stroke="none" stroke-width="1"/><path id="e8pgLAwFKTC31" d="M40.436400,519.037000L41.343200,519.551000C41.386400,519.575000,41.434800,519.587000,41.484100,519.587000C41.533300,519.587000,41.581800,519.575000,41.625000,519.551000L42.482800,519.062000C42.556300,519.062000,42.568500,518.939000,42.482800,518.903000L41.588200,518.376000C41.544200,518.356000,41.496000,518.345000,41.447300,518.345000C41.398600,518.345000,41.350500,518.356000,41.306400,518.376000L40.448700,518.878000C40.350600,518.976000,40.350600,518.976000,40.436400,519.037000Z" fill="rgb(58,44,109)" stroke="none" stroke-width="1"/><path id="e8pgLAwFKTC32" d="M39.211300,518.303000L40.105800,518.829000C40.149900,518.850000,40.198000,518.861000,40.246700,518.861000C40.295400,518.861000,40.343600,518.850000,40.387600,518.829000L41.245400,518.327000C41.331200,518.327000,41.343400,518.205000,41.245400,518.168000L40.350900,517.654000C40.305500,517.630000,40.255000,517.618000,40.203800,517.618000C40.152600,517.618000,40.102200,517.630000,40.056800,517.654000L39.211300,518.144000C39.088800,518.193000,39.076500,518.266000,39.211300,518.303000Z" fill="rgb(58,44,109)" stroke="none" stroke-width="1"/><path id="e8pgLAwFKTC33" d="M37.275200,517.226000L38.782400,518.095000C38.826500,518.115000,38.874600,518.126000,38.923300,518.126000C38.972000,518.126000,39.020100,518.115000,39.064200,518.095000L39.922000,517.605000C40.007700,517.605000,40.007700,517.483000,39.922000,517.434000L38.427000,516.528000C38.383000,516.507000,38.334800,516.496000,38.286100,516.496000C38.237400,516.496000,38.189300,516.507000,38.145200,516.528000L37.287500,517.030000C37.274600,517.029000,37.261700,517.031000,37.249500,517.035000C37.237300,517.039000,37.226000,517.046000,37.216300,517.054000C37.206700,517.063000,37.198800,517.073000,37.193100,517.085000C37.187400,517.096000,37.184100,517.109000,37.183300,517.122000C37.182500,517.134000,37.184200,517.147000,37.188400,517.160000C37.192600,517.172000,37.199100,517.183000,37.207700,517.193000C37.216200,517.202000,37.226600,517.210000,37.238200,517.216000C37.249700,517.222000,37.262300,517.225000,37.275200,517.226000Z" fill="rgb(58,44,109)" stroke="none" stroke-width="1"/><path id="e8pgLAwFKTC34" d="M51.244200,526.699000L52.151000,527.214000C52.194200,527.237000,52.242700,527.249000,52.291900,527.249000C52.341200,527.249000,52.389600,527.237000,52.432800,527.214000L53.290600,526.724000C53.364100,526.724000,53.376400,526.602000,53.290600,526.565000L52.396100,526.051000C52.352800,526.027000,52.304400,526.015000,52.255200,526.015000C52.205900,526.015000,52.157500,526.027000,52.114200,526.051000L51.256500,526.540000C51.183000,526.589000,51.183000,526.663000,51.244200,526.699000Z" fill="rgb(58,44,109)" stroke="none" stroke-width="1"/><path id="e8pgLAwFKTC35" d="M49.982300,525.965000L50.876800,526.491000C50.920900,526.512000,50.969000,526.523000,51.017700,526.523000C51.066400,526.523000,51.114600,526.512000,51.158600,526.491000L52.016400,525.989000C52.102200,525.989000,52.114400,525.867000,52.016400,525.830000L51.121900,525.316000C51.076500,525.293000,51.026000,525.280000,50.974800,525.280000C50.923600,525.280000,50.873200,525.293000,50.827800,525.316000L49.982300,525.806000C49.921000,525.855000,49.908800,525.928000,49.982300,525.965000Z" fill="rgb(58,44,109)" stroke="none" stroke-width="1"/><path id="e8pgLAwFKTC36" d="M48.707900,525.243000L49.602400,525.757000C49.648600,525.778000,49.698700,525.789000,49.749400,525.789000C49.800200,525.789000,49.850300,525.778000,49.896500,525.757000L50.742000,525.267000C50.827700,525.267000,50.840000,525.145000,50.742000,525.096000L49.847500,524.582000C49.803400,524.561000,49.755300,524.550000,49.706500,524.550000C49.657800,524.550000,49.609700,524.561000,49.565600,524.582000L48.707900,525.072000C48.646600,525.096000,48.634400,525.194000,48.707900,525.243000Z" fill="rgb(58,44,109)" stroke="none" stroke-width="1"/><path id="e8pgLAwFKTC37" d="M47.445800,524.508000L48.340300,525.022000C48.384400,525.043000,48.432500,525.054000,48.481200,525.054000C48.529900,525.054000,48.578000,525.043000,48.622100,525.022000L49.479900,524.533000C49.565600,524.533000,49.565600,524.411000,49.479900,524.362000L48.585300,523.847000C48.541300,523.827000,48.493100,523.816000,48.444400,523.816000C48.395700,523.816000,48.347600,523.827000,48.303500,523.847000L47.445800,524.337000C47.372200,524.386000,47.372200,524.459000,47.445800,524.508000Z" fill="rgb(58,44,109)" stroke="none" stroke-width="1"/><path id="e8pgLAwFKTC38" d="M46.183500,523.774000L47.078000,524.300000C47.122100,524.321000,47.170200,524.332000,47.218900,524.332000C47.267600,524.332000,47.315700,524.321000,47.359800,524.300000L48.217600,523.799000C48.303300,523.799000,48.315600,523.676000,48.217600,523.639000L47.323000,523.125000C47.277600,523.102000,47.227200,523.089000,47.176000,523.089000C47.124800,523.089000,47.074400,523.102000,47.029000,523.125000L46.183500,523.615000C46.122200,523.664000,46.109900,523.737000,46.183500,523.774000Z" fill="rgb(58,44,109)" stroke="none" stroke-width="1"/><path id="e8pgLAwFKTC39" d="M44.909000,523.052000L45.803600,523.566000C45.849700,523.587000,45.899900,523.598000,45.950600,523.598000C46.001300,523.598000,46.051500,523.587000,46.097600,523.566000L46.943100,523.076000C47.028900,523.076000,47.041200,522.954000,46.943100,522.905000L46.048600,522.391000C46.004600,522.370000,45.956400,522.359000,45.907700,522.359000C45.859000,522.359000,45.810900,522.370000,45.766800,522.391000L44.909000,522.881000C44.847800,522.930000,44.835500,523.003000,44.909000,523.052000Z" fill="rgb(58,44,109)" stroke="none" stroke-width="1"/><path id="e8pgLAwFKTC40" d="M43.646900,522.318000L44.541400,522.832000C44.585500,522.852000,44.633600,522.863000,44.682400,522.863000C44.731100,522.863000,44.779200,522.852000,44.823300,522.832000L45.681000,522.342000C45.766800,522.342000,45.766800,522.220000,45.681000,522.171000L44.786500,521.657000C44.742400,521.636000,44.694300,521.625000,44.645600,521.625000C44.596900,521.625000,44.548800,521.636000,44.504700,521.657000L43.646900,522.146000C43.573400,522.195000,43.573400,522.269000,43.646900,522.318000Z" fill="rgb(58,44,109)" stroke="none" stroke-width="1"/><path id="e8pgLAwFKTC41" d="M42.372400,521.583000L43.266900,522.097000C43.310200,522.121000,43.358600,522.133000,43.407900,522.133000C43.457100,522.133000,43.505500,522.121000,43.548800,522.097000L44.406500,521.608000C44.492300,521.608000,44.504500,521.485000,44.406500,521.448000L43.512000,520.922000C43.465800,520.901000,43.415700,520.890000,43.365000,520.890000C43.314200,520.890000,43.264100,520.901000,43.217900,520.922000L42.372400,521.424000C42.311200,521.424000,42.298900,521.546000,42.372400,521.583000Z" fill="rgb(58,44,109)" stroke="none" stroke-width="1"/><path id="e8pgLAwFKTC42" d="M41.098200,520.849000L42.005000,521.363000C42.048200,521.386000,42.096700,521.399000,42.145900,521.399000C42.195200,521.399000,42.243600,521.386000,42.286800,521.363000L43.144600,520.873000C43.218100,520.873000,43.230400,520.751000,43.144600,520.714000L42.250100,520.200000C42.206800,520.176000,42.158400,520.164000,42.109200,520.164000C42.059900,520.164000,42.011500,520.176000,41.968200,520.200000L41.110500,520.690000C41.037000,520.739000,41.037000,520.812000,41.098200,520.849000Z" fill="rgb(58,44,109)" stroke="none" stroke-width="1"/><path id="e8pgLAwFKTC43" d="M39.836300,520.114000L40.730800,520.641000C40.774900,520.661000,40.823000,520.672000,40.871700,520.672000C40.920400,520.672000,40.968600,520.661000,41.012600,520.641000L41.870400,520.139000C41.956200,520.139000,41.968400,520.016000,41.870400,519.980000L40.975900,519.466000C40.930500,519.442000,40.880000,519.430000,40.828800,519.430000C40.777600,519.430000,40.727200,519.442000,40.681800,519.466000L39.836300,519.955000C39.775000,520.004000,39.762800,520.078000,39.836300,520.114000Z" fill="rgb(58,44,109)" stroke="none" stroke-width="1"/><path id="e8pgLAwFKTC44" d="M38.561900,519.392000L39.456400,519.906000C39.502600,519.927000,39.552700,519.938000,39.603400,519.938000C39.654200,519.938000,39.704300,519.927000,39.750500,519.906000L40.596000,519.417000C40.681700,519.417000,40.694000,519.294000,40.596000,519.245000L39.701500,518.731000C39.657400,518.710000,39.609300,518.700000,39.560500,518.700000C39.511800,518.700000,39.463700,518.710000,39.419600,518.731000L38.561900,519.221000C38.500600,519.270000,38.488400,519.343000,38.561900,519.392000Z" fill="rgb(58,44,109)" stroke="none" stroke-width="1"/><path id="e8pgLAwFKTC45" d="M37.299800,518.658000L38.194300,519.172000C38.238400,519.193000,38.286500,519.203000,38.335200,519.203000C38.383900,519.203000,38.432000,519.193000,38.476100,519.172000L39.333900,518.682000C39.419600,518.682000,39.419600,518.560000,39.333900,518.511000L38.439400,517.997000C38.395300,517.976000,38.347200,517.965000,38.298400,517.965000C38.249700,517.965000,38.201600,517.976000,38.157500,517.997000L37.299800,518.486000C37.226200,518.535000,37.226200,518.609000,37.299800,518.658000Z" fill="rgb(58,44,109)" stroke="none" stroke-width="1"/><path id="e8pgLAwFKTC46" d="M52.518400,527.434000L54.025600,528.303000C54.069700,528.324000,54.117800,528.334000,54.166500,528.334000C54.215200,528.334000,54.263400,528.324000,54.307400,528.303000L55.165200,527.813000C55.251000,527.813000,55.263200,527.691000,55.165200,527.642000L53.658000,526.773000C53.611800,526.752000,53.561700,526.741000,53.511000,526.741000C53.460200,526.741000,53.410100,526.752000,53.363900,526.773000L52.518400,527.275000C52.457200,527.324000,52.444900,527.397000,52.518400,527.434000Z" fill="rgb(58,44,109)" stroke="none" stroke-width="1"/><path id="e8pgLAwFKTC47" d="M37.189700,517.262000L38.084200,517.776000C38.157700,517.776000,38.157700,517.887000,38.084200,517.936000L37.177400,518.450000C37.138700,518.474000,37.094200,518.486000,37.048700,518.486000C37.003300,518.486000,36.958700,518.474000,36.920100,518.450000L36.846600,518.450000C36.808300,518.431000,36.766500,518.422000,36.724000,518.422000C36.681600,518.422000,36.639700,518.431000,36.601500,518.450000L35.645700,519C35.603100,519.019000,35.557200,519.028000,35.510900,519.028000C35.464600,519.028000,35.418700,519.019000,35.376100,519L34.812500,518.670000C34.738900,518.670000,34.738900,518.560000,34.812500,518.511000L35.707000,517.997000L35.890800,517.899000L36.025600,517.813000L36.160400,517.740000L36.920100,517.299000C36.957700,517.270000,37.002500,517.251000,37.049900,517.244000C37.097300,517.238000,37.145500,517.244000,37.189700,517.262000Z" fill="rgb(58,44,109)" stroke="none" stroke-width="1"/><path id="e8pgLAwFKTC48" d="M49.442700,529.906000L50.337300,530.420000C50.380500,530.444000,50.428900,530.456000,50.478200,530.456000C50.527400,530.456000,50.575900,530.444000,50.619100,530.420000L51.476800,529.931000C51.562600,529.931000,51.562600,529.808000,51.476800,529.772000L50.582300,529.258000C50.539100,529.234000,50.490600,529.222000,50.441400,529.222000C50.392200,529.222000,50.343700,529.234000,50.300500,529.258000L49.442700,529.747000C49.381500,529.796000,49.369200,529.870000,49.442700,529.906000Z" fill="rgb(58,44,109)" stroke="none" stroke-width="1"/><path id="e8pgLAwFKTC49" d="M48.180600,529.184000L49.075100,529.698000C49.119200,529.719000,49.167300,529.730000,49.216100,529.730000C49.264800,529.730000,49.312900,529.719000,49.357000,529.698000L50.214700,529.209000C50.300500,529.209000,50.300500,529.086000,50.214700,529.037000L49.320200,528.523000C49.276100,528.502000,49.228000,528.492000,49.179300,528.492000C49.130600,528.492000,49.082500,528.502000,49.038400,528.523000L48.180600,529.013000C48.107100,529.062000,48.107100,529.135000,48.180600,529.184000Z" fill="rgb(58,44,109)" stroke="none" stroke-width="1"/><path id="e8pgLAwFKTC50" d="M46.906300,528.450000L47.813100,528.964000C47.856300,528.987000,47.904800,529,47.954000,529C48.003300,529,48.051700,528.987000,48.094900,528.964000L48.952700,528.474000C49.026200,528.474000,49.038500,528.352000,48.952700,528.315000L48.058200,527.801000C48.015000,527.777000,47.966500,527.765000,47.917300,527.765000C47.868000,527.765000,47.819600,527.777000,47.776300,527.801000L46.918600,528.303000C46.845100,528.340000,46.845100,528.413000,46.906300,528.450000Z" fill="rgb(58,44,109)" stroke="none" stroke-width="1"/><path id="e8pgLAwFKTC51" d="M36.147800,522.244000L37.042300,522.758000C37.087700,522.782000,37.138200,522.794000,37.189400,522.794000C37.240600,522.794000,37.291000,522.782000,37.336400,522.758000L38.181900,522.269000C38.267700,522.269000,38.279900,522.146000,38.181900,522.109000L37.287400,521.583000C37.243300,521.562000,37.195200,521.552000,37.146500,521.552000C37.097800,521.552000,37.049600,521.562000,37.005600,521.583000L36.147800,522.085000C36.086600,522.134000,36.074300,522.207000,36.147800,522.244000Z" fill="rgb(58,44,109)" stroke="none" stroke-width="1"/><path id="e8pgLAwFKTC52" d="M34.885600,521.522000L35.780100,522.036000C35.824200,522.057000,35.872300,522.067000,35.921000,522.067000C35.969800,522.067000,36.017900,522.057000,36.061900,522.036000L36.919700,521.534000C37.005500,521.534000,37.017700,521.424000,36.919700,521.375000L36.025200,520.861000C35.979800,520.837000,35.929300,520.825000,35.878100,520.825000C35.827000,520.825000,35.776500,520.837000,35.731100,520.861000L34.885600,521.350000C34.824300,521.424000,34.812100,521.424000,34.885600,521.522000Z" fill="rgb(58,44,109)" stroke="none" stroke-width="1"/><path id="e8pgLAwFKTC53" d="M33.623900,520.787000L34.518400,521.302000C34.561600,521.325000,34.610100,521.337000,34.659300,521.337000C34.708600,521.337000,34.757000,521.325000,34.800200,521.302000L35.658000,520.812000C35.743800,520.812000,35.756000,520.690000,35.658000,520.653000L34.763500,520.127000C34.717300,520.106000,34.667200,520.095000,34.616400,520.095000C34.565700,520.095000,34.515600,520.106000,34.469400,520.127000L33.623900,520.628000C33.562600,520.677000,33.550400,520.751000,33.623900,520.787000Z" fill="rgb(58,44,109)" stroke="none" stroke-width="1"/><path id="e8pgLAwFKTC54" d="M32.361600,520.053000L33.256200,520.579000C33.300200,520.600000,33.348400,520.611000,33.397100,520.611000C33.445800,520.611000,33.493900,520.600000,33.538000,520.579000L34.395700,520.078000C34.481500,520.078000,34.481500,519.955000,34.395700,519.918000L33.489000,519.404000C33.445800,519.381000,33.397300,519.368000,33.348100,519.368000C33.298800,519.368000,33.250400,519.381000,33.207100,519.404000L32.349400,519.894000C32.300400,519.943000,32.288100,520.016000,32.361600,520.053000Z" fill="rgb(58,44,109)" stroke="none" stroke-width="1"/><path id="e8pgLAwFKTC55" d="M45.338100,527.544000L46.563500,528.254000C46.609700,528.275000,46.659800,528.286000,46.710500,528.286000C46.761300,528.286000,46.811400,528.275000,46.857600,528.254000L47.703100,527.764000C47.788900,527.764000,47.801100,527.642000,47.703100,527.593000L46.477700,526.895000C46.434500,526.872000,46.386000,526.859000,46.336800,526.859000C46.287600,526.859000,46.239100,526.872000,46.195900,526.895000L45.338100,527.385000C45.264600,527.422000,45.252400,527.544000,45.338100,527.544000Z" fill="rgb(58,44,109)" stroke="none" stroke-width="1"/><path id="e8pgLAwFKTC56" d="M37.410000,522.978000L38.635400,523.676000C38.678600,523.700000,38.727100,523.712000,38.776300,523.712000C38.825500,523.712000,38.874000,523.700000,38.917200,523.676000L39.775000,523.187000C39.860700,523.187000,39.873000,523.064000,39.775000,523.015000L38.549600,522.318000C38.505500,522.297000,38.457400,522.286000,38.408700,522.286000C38.360000,522.286000,38.311800,522.297000,38.267800,522.318000L37.410000,522.807000C37.348800,522.856000,37.336500,522.929000,37.410000,522.978000Z" fill="rgb(58,44,109)" stroke="none" stroke-width="1"/><path id="e8pgLAwFKTC57" d="M39.003000,523.872000L44.958200,527.311000C45.002300,527.332000,45.050400,527.343000,45.099100,527.343000C45.147900,527.343000,45.196000,527.332000,45.240100,527.311000L46.097800,526.822000C46.183600,526.822000,46.183600,526.699000,46.097800,526.650000L40.154800,523.223000C40.109400,523.200000,40.059000,523.187000,40.007800,523.187000C39.956600,523.187000,39.906200,523.200000,39.860800,523.223000L39.015300,523.713000C38.941700,523.774000,38.929500,523.872000,39.003000,523.872000Z" fill="rgb(58,44,109)" stroke="none" stroke-width="1"/><path id="e8pgLAwFKTC58" d="M49.675600,527.213000L50.570200,527.728000C50.613400,527.751000,50.661800,527.763000,50.711100,527.763000C50.760300,527.763000,50.808800,527.751000,50.852000,527.728000L51.709700,527.238000C51.795500,527.238000,51.807800,527.116000,51.709700,527.067000L50.815200,526.553000C50.769100,526.532000,50.718900,526.521000,50.668200,526.521000C50.617500,526.521000,50.567300,526.532000,50.521100,526.553000L49.675600,527.042000C49.614400,527.091000,49.602100,527.165000,49.675600,527.213000Z" fill="rgb(58,44,109)" stroke="none" stroke-width="1"/><path id="e8pgLAwFKTC59" d="M48.413400,526.479000L49.308000,526.993000C49.351200,527.017000,49.399600,527.029000,49.448900,527.029000C49.498100,527.029000,49.546600,527.017000,49.589800,526.993000L50.447500,526.504000C50.533300,526.504000,50.533300,526.381000,50.447500,526.344000L49.553000,525.830000C49.509800,525.807000,49.461400,525.794000,49.412100,525.794000C49.362900,525.794000,49.314400,525.807000,49.271200,525.830000L48.413400,526.320000C48.352200,526.320000,48.339900,526.442000,48.413400,526.479000Z" fill="rgb(58,44,109)" stroke="none" stroke-width="1"/><path id="e8pgLAwFKTC60" d="M47.139300,525.757000L48.046000,526.271000C48.090100,526.292000,48.138200,526.303000,48.186900,526.303000C48.235600,526.303000,48.283800,526.292000,48.327800,526.271000L49.185600,525.781000C49.259100,525.781000,49.271400,525.659000,49.185600,525.610000L48.291100,525.096000C48.247000,525.075000,48.198900,525.064000,48.150200,525.064000C48.101400,525.064000,48.053300,525.075000,48.009300,525.096000L47.151500,525.586000C47.078000,525.635000,47.078000,525.708000,47.139300,525.757000Z" fill="rgb(58,44,109)" stroke="none" stroke-width="1"/><path id="e8pgLAwFKTC61" d="M45.877300,525.023000L46.771800,525.537000C46.815000,525.560000,46.863500,525.573000,46.912700,525.573000C46.962000,525.573000,47.010400,525.560000,47.053700,525.537000L47.911400,525.047000C47.997200,525.047000,48.009400,524.925000,47.911400,524.876000L47.016900,524.362000C46.972800,524.341000,46.924700,524.330000,46.876000,524.330000C46.827300,524.330000,46.779100,524.341000,46.735100,524.362000L45.877300,524.863000C45.816000,524.912000,45.803800,524.986000,45.877300,525.023000Z" fill="rgb(58,44,109)" stroke="none" stroke-width="1"/><path id="e8pgLAwFKTC62" d="M44.615100,524.288000L45.509600,524.802000C45.552800,524.826000,45.601300,524.838000,45.650500,524.838000C45.699800,524.838000,45.748200,524.826000,45.791400,524.802000L46.649200,524.300000C46.735000,524.300000,46.747200,524.178000,46.649200,524.141000L45.754700,523.627000C45.709300,523.604000,45.658800,523.591000,45.607600,523.591000C45.556500,523.591000,45.506000,523.604000,45.460600,523.627000L44.615100,524.117000C44.553800,524.178000,44.541600,524.251000,44.615100,524.288000Z" fill="rgb(58,44,109)" stroke="none" stroke-width="1"/><path id="e8pgLAwFKTC63" d="M43.353000,523.566000L44.247500,524.080000C44.291600,524.101000,44.339700,524.112000,44.388400,524.112000C44.437100,524.112000,44.485300,524.101000,44.529300,524.080000L45.387100,523.590000C45.460600,523.590000,45.472900,523.468000,45.387100,523.419000L44.492600,522.905000C44.448500,522.884000,44.400400,522.874000,44.351700,522.874000C44.302900,522.874000,44.254800,522.884000,44.210700,522.905000L43.353000,523.395000C43.279500,523.444000,43.279500,523.517000,43.353000,523.566000Z" fill="rgb(58,44,109)" stroke="none" stroke-width="1"/><path id="e8pgLAwFKTC64" d="M42.078500,522.832000L42.973000,523.346000C43.018400,523.369000,43.068800,523.382000,43.120000,523.382000C43.171200,523.382000,43.221700,523.369000,43.267100,523.346000L44.112600,522.856000C44.198300,522.856000,44.210600,522.734000,44.112600,522.697000L43.218100,522.171000C43.174000,522.150000,43.125900,522.139000,43.077100,522.139000C43.028400,522.139000,42.980300,522.150000,42.936200,522.171000L42.078500,522.672000C42.017200,522.721000,42.005000,522.795000,42.078500,522.832000Z" fill="rgb(58,44,109)" stroke="none" stroke-width="1"/><path id="e8pgLAwFKTC65" d="M40.816600,522.097000L41.662100,522.648000C41.706200,522.669000,41.754300,522.679000,41.803000,522.679000C41.851700,522.679000,41.899800,522.669000,41.943900,522.648000L42.801700,522.146000C42.887400,522.146000,42.899700,522.024000,42.801700,521.987000L41.907100,521.473000C41.861700,521.449000,41.811300,521.437000,41.760100,521.437000C41.708900,521.437000,41.658500,521.449000,41.613100,521.473000L40.767600,521.963000C40.755300,521.987000,40.743100,522.060000,40.816600,522.097000Z" fill="rgb(58,44,109)" stroke="none" stroke-width="1"/><path id="e8pgLAwFKTC66" d="M39.554200,521.424000L40.448700,521.938000C40.492800,521.959000,40.540900,521.970000,40.589600,521.970000C40.638300,521.970000,40.686400,521.959000,40.730500,521.938000L41.588300,521.448000C41.674000,521.448000,41.674000,521.326000,41.588300,521.277000L40.693700,520.763000C40.649700,520.742000,40.601600,520.732000,40.552800,520.732000C40.504100,520.732000,40.456000,520.742000,40.411900,520.763000L39.554200,521.253000C39.480600,521.253000,39.480600,521.326000,39.554200,521.424000Z" fill="rgb(58,44,109)" stroke="none" stroke-width="1"/><path id="e8pgLAwFKTC67" d="M38.280100,520.641000L39.174700,521.155000C39.220100,521.178000,39.270500,521.191000,39.321700,521.191000C39.372900,521.191000,39.423300,521.178000,39.468700,521.155000L40.314200,520.665000C40.400000,520.665000,40.412300,520.543000,40.314200,520.506000L39.419700,519.980000C39.375600,519.959000,39.327500,519.948000,39.278800,519.948000C39.230100,519.948000,39.182000,519.959000,39.137900,519.980000L38.280100,520.482000C38.218900,520.530000,38.206600,520.604000,38.280100,520.641000Z" fill="rgb(58,44,109)" stroke="none" stroke-width="1"/><path id="e8pgLAwFKTC68" d="M37.017900,519.906000L37.912400,520.433000C37.956500,520.453000,38.004600,520.464000,38.053400,520.464000C38.102100,520.464000,38.150200,520.453000,38.194300,520.433000L39.052000,519.931000C39.137800,519.931000,39.150100,519.808000,39.052000,519.772000L38.157500,519.258000C38.112100,519.234000,38.061700,519.222000,38.010500,519.222000C37.959300,519.222000,37.908800,519.234000,37.863400,519.258000L37.017900,519.747000C36.956700,519.796000,36.944400,519.870000,37.017900,519.906000Z" fill="rgb(58,44,109)" stroke="none" stroke-width="1"/><path id="e8pgLAwFKTC69" d="M35.755800,519.184000L36.650300,519.698000C36.694400,519.719000,36.742500,519.730000,36.791200,519.730000C36.840000,519.730000,36.888100,519.719000,36.932200,519.698000L37.789900,519.209000C37.875700,519.209000,37.875700,519.086000,37.789900,519.037000L36.895400,518.523000C36.851300,518.502000,36.803200,518.492000,36.754500,518.492000C36.705800,518.492000,36.657600,518.502000,36.613600,518.523000L35.755800,519.013000C35.682300,519.062000,35.682300,519.135000,35.755800,519.184000Z" fill="rgb(58,44,109)" stroke="none" stroke-width="1"/><path id="e8pgLAwFKTC70" d="M50.937900,527.948000L52.800400,529.013000C52.844500,529.033000,52.892600,529.044000,52.941300,529.044000C52.990000,529.044000,53.038200,529.033000,53.082200,529.013000L53.927700,528.523000C54.013500,528.523000,54.025800,528.401000,53.927700,528.352000L52.077400,527.287000C52.034200,527.263000,51.985800,527.251000,51.936500,527.251000C51.887300,527.251000,51.838800,527.263000,51.795600,527.287000L50.937900,527.777000C50.876600,527.825000,50.864300,527.899000,50.937900,527.948000Z" fill="rgb(58,44,109)" stroke="none" stroke-width="1"/><path id="e8pgLAwFKTC71" d="M49.075200,528.278000L49.969800,528.805000C50.013800,528.825000,50.062000,528.836000,50.110700,528.836000C50.159400,528.836000,50.207500,528.825000,50.251600,528.805000L51.109300,528.303000C51.195100,528.303000,51.207400,528.180000,51.109300,528.144000L50.214800,527.630000C50.171600,527.606000,50.123200,527.594000,50.073900,527.594000C50.024700,527.594000,49.976200,527.606000,49.933000,527.630000L49.075200,528.119000C49.014000,528.168000,49.014000,528.242000,49.075200,528.278000Z" fill="rgb(58,44,109)" stroke="none" stroke-width="1"/><path id="e8pgLAwFKTC72" d="M47.788600,527.544000L48.683100,528.058000C48.727200,528.079000,48.775300,528.090000,48.824000,528.090000C48.872700,528.090000,48.920800,528.079000,48.964900,528.058000L49.822700,527.568000C49.908400,527.568000,49.920700,527.446000,49.822700,527.397000L48.915900,526.883000C48.871800,526.862000,48.823700,526.852000,48.775000,526.852000C48.726300,526.852000,48.678100,526.862000,48.634100,526.883000L47.788600,527.373000C47.788600,527.434000,47.788600,527.544000,47.788600,527.544000Z" fill="rgb(58,44,109)" stroke="none" stroke-width="1"/><path id="e8pgLAwFKTC73" d="M46.563400,526.822000L47.457900,527.336000C47.501100,527.359000,47.549500,527.372000,47.598800,527.372000C47.648000,527.372000,47.696500,527.359000,47.739700,527.336000L48.597400,526.846000C48.671000,526.846000,48.683200,526.724000,48.597400,526.687000L47.702900,526.161000C47.658900,526.140000,47.610700,526.129000,47.562000,526.129000C47.513300,526.129000,47.465200,526.140000,47.421100,526.161000L46.563400,526.663000C46.477600,526.712000,46.477600,526.785000,46.563400,526.822000Z" fill="rgb(58,44,109)" stroke="none" stroke-width="1"/><path id="e8pgLAwFKTC74" d="M45.338300,526.087000L46.232800,526.614000C46.278900,526.635000,46.329100,526.646000,46.379800,526.646000C46.430500,526.646000,46.480700,526.635000,46.526800,526.614000L47.372300,526.112000C47.458100,526.112000,47.470400,525.989000,47.372300,525.953000L46.477800,525.439000C46.434600,525.415000,46.386200,525.403000,46.336900,525.403000C46.287700,525.403000,46.239200,525.415000,46.196000,525.439000L45.338300,525.928000C45.215700,525.977000,45.203500,526.051000,45.338300,526.087000Z" fill="rgb(58,44,109)" stroke="none" stroke-width="1"/><path id="e8pgLAwFKTC75" d="M42.752400,524.631000L43.646900,525.145000C43.690100,525.168000,43.738600,525.181000,43.787800,525.181000C43.837100,525.181000,43.885500,525.168000,43.928700,525.145000L44.786500,524.655000C44.872300,524.655000,44.872300,524.533000,44.786500,524.496000L43.892000,523.982000C43.848800,523.959000,43.800300,523.946000,43.751100,523.946000C43.701800,523.946000,43.653400,523.959000,43.610200,523.982000L42.752400,524.472000C42.678900,524.521000,42.678900,524.594000,42.752400,524.631000Z" fill="rgb(58,44,109)" stroke="none" stroke-width="1"/><path id="e8pgLAwFKTC76" d="M41.477900,523.872000L42.372400,524.386000C42.418600,524.407000,42.468700,524.418000,42.519400,524.418000C42.570200,524.418000,42.620300,524.407000,42.666500,524.386000L43.512000,523.896000C43.597800,523.896000,43.610000,523.774000,43.512000,523.725000L42.617500,523.211000C42.574300,523.187000,42.525800,523.175000,42.476600,523.175000C42.427300,523.175000,42.378900,523.187000,42.335600,523.211000L41.477900,523.701000C41.416600,523.786000,41.404400,523.872000,41.477900,523.872000Z" fill="rgb(58,44,109)" stroke="none" stroke-width="1"/><path id="e8pgLAwFKTC77" d="M40.216200,523.174000L41.110700,523.688000C41.153900,523.712000,41.202400,523.724000,41.251600,523.724000C41.300800,523.724000,41.349300,523.712000,41.392500,523.688000L42.250300,523.199000C42.336000,523.199000,42.348300,523.076000,42.250300,523.027000L41.355800,522.513000C41.309600,522.492000,41.259400,522.482000,41.208700,522.482000C41.158000,522.482000,41.107800,522.492000,41.061700,522.513000L40.216200,523.015000C40.154900,523.052000,40.142700,523.125000,40.216200,523.174000Z" fill="rgb(58,44,109)" stroke="none" stroke-width="1"/><path id="e8pgLAwFKTC78" d="M38.953900,522.440000L39.848400,522.954000C39.892300,522.976000,39.940500,522.987000,39.989400,522.987000C40.038200,522.987000,40.086400,522.976000,40.130300,522.954000L40.988000,522.452000C41.073800,522.452000,41.073800,522.330000,40.988000,522.293000L40.081300,521.779000C40.038000,521.755000,39.989600,521.743000,39.940300,521.743000C39.891100,521.743000,39.842600,521.755000,39.799400,521.779000L38.941700,522.269000C38.892700,522.330000,38.880400,522.403000,38.953900,522.440000Z" fill="rgb(58,44,109)" stroke="none" stroke-width="1"/><path id="e8pgLAwFKTC79" d="M37.691900,521.718000L38.586400,522.232000C38.630400,522.253000,38.678600,522.263000,38.727300,522.263000C38.776000,522.263000,38.824100,522.253000,38.868200,522.232000L39.725900,521.742000C39.799500,521.742000,39.811700,521.620000,39.725900,521.571000L38.831400,521.057000C38.787400,521.036000,38.739200,521.025000,38.690500,521.025000C38.641800,521.025000,38.593700,521.036000,38.549600,521.057000L37.691900,521.546000C37.618300,521.595000,37.618300,521.669000,37.691900,521.718000Z" fill="rgb(58,44,109)" stroke="none" stroke-width="1"/><path id="e8pgLAwFKTC80" d="M36.417300,520.983000L37.311900,521.497000C37.357300,521.521000,37.407700,521.533000,37.458900,521.533000C37.510100,521.533000,37.560500,521.521000,37.605900,521.497000L38.451400,521.008000C38.537200,521.008000,38.549500,520.885000,38.451400,520.849000L37.556900,520.322000C37.512800,520.302000,37.464700,520.291000,37.416000,520.291000C37.367300,520.291000,37.319200,520.302000,37.275100,520.322000L36.417300,520.824000C36.356100,520.873000,36.343800,520.947000,36.417300,520.983000Z" fill="rgb(58,44,109)" stroke="none" stroke-width="1"/><path id="e8pgLAwFKTC81" d="M33.586800,519.355000L36.037500,520.775000C36.081600,520.796000,36.129700,520.807000,36.178400,520.807000C36.227100,520.807000,36.275200,520.796000,36.319300,520.775000L37.177100,520.273000C37.262800,520.273000,37.275100,520.151000,37.177100,520.114000L34.726400,518.694000C34.680900,518.671000,34.630500,518.659000,34.579300,518.659000C34.528100,518.659000,34.477700,518.671000,34.432300,518.694000L33.586800,519.184000C33.525500,519.233000,33.513300,519.306000,33.586800,519.355000Z" fill="rgb(58,44,109)" stroke="none" stroke-width="1"/><path id="e8pgLAwFKTC82" d="M50.337200,529.013000L51.562500,529.723000C51.606600,529.743000,51.654700,529.754000,51.703500,529.754000C51.752200,529.754000,51.800300,529.743000,51.844400,529.723000L52.702100,529.221000C52.787900,529.221000,52.800200,529.098000,52.702100,529.062000L51.476800,528.352000C51.432700,528.331000,51.384600,528.320000,51.335900,528.320000C51.287100,528.320000,51.239000,528.331000,51.194900,528.352000L50.337200,528.854000C50.239200,528.903000,50.239200,528.976000,50.337200,529.013000Z" fill="rgb(58,44,109)" stroke="none" stroke-width="1"/><path id="e8pgLAwFKTC83" d="M59.625500,526.504000L39.309100,514.778000L39.309100,498.866000L39.468400,498.498000L39.627700,498.425000C39.841100,498.299000,40.084400,498.233000,40.332300,498.233000C40.580100,498.233000,40.823400,498.299000,41.036800,498.425000L59.625500,509.135000C59.837600,509.262000,60.013400,509.441000,60.135800,509.655000C60.258200,509.870000,60.323000,510.112000,60.323900,510.359000L60.323900,525.341000C60.189100,526.063000,60.042100,526.247000,59.625500,526.504000Z" fill="rgb(229,229,229)" stroke="none" stroke-width="1"/><path id="e8pgLAwFKTC84" d="M57.762900,511.032000L39.309100,499.392000L39.309100,498.866000L39.468400,498.498000L39.627700,498.425000C39.841100,498.299000,40.084400,498.233000,40.332300,498.233000C40.580100,498.233000,40.823400,498.299000,41.036800,498.425000L59.625400,509.135000C59.854100,509.265000,60.037900,509.461000,60.152400,509.698000L57.762900,511.032000Z" fill="rgb(229,229,229)" stroke="none" stroke-width="1"/><path id="e8pgLAwFKTC85" d="M39.774800,498.462000L59.282500,509.710000C59.385100,509.771000,59.470500,509.857000,59.530500,509.959000C59.590600,510.062000,59.623300,510.179000,59.625600,510.298000L59.625600,526.504000L39.309200,514.778000L39.309200,498.731000C39.307800,498.676000,39.321200,498.622000,39.348100,498.574000C39.374900,498.526000,39.414300,498.486000,39.461900,498.458000C39.509600,498.431000,39.563800,498.416000,39.618900,498.417000C39.673900,498.418000,39.727800,498.433000,39.774800,498.462000Z" fill="rgb(220,238,255)" stroke="none" stroke-width="1"/><path id="e8pgLAwFKTC86" d="M39.774800,498.462000L59.282500,509.710000C59.385100,509.771000,59.470500,509.857000,59.530500,509.959000C59.590600,510.062000,59.623300,510.179000,59.625600,510.298000L59.625600,526.504000L39.309200,514.778000L39.309200,498.731000C39.307800,498.676000,39.321200,498.622000,39.348100,498.574000C39.374900,498.526000,39.414300,498.486000,39.461900,498.458000C39.509600,498.431000,39.563800,498.416000,39.618900,498.417000C39.673900,498.418000,39.727800,498.433000,39.774800,498.462000Z" fill="rgb(244,244,244)" stroke="none" stroke-width="1"/><path id="e8pgLAwFKTC87" d="M59.625500,526.504000L59.625500,525.916000L39.309100,514.202000L39.309100,514.778000L59.625500,526.504000Z" fill="rgb(219,219,219)" stroke="none" stroke-width="1"/><path id="e8pgLAwFKTC88" d="M39.835900,513.933000L39.835900,499.306000L40.081000,499.441000L40.081000,513.811000L39.835900,513.933000Z" fill="rgb(30,55,121)" stroke="none" stroke-width="1"/><path id="e8pgLAwFKTC89" d="M40.081100,499.441000L40.081100,513.811000L58.976000,524.668000L58.976000,510.335000L40.081100,499.441000Z" fill="rgb(58,44,109)" stroke="none" stroke-width="1"/><path id="e8pgLAwFKTC90" d="M39.835900,513.933000L58.976000,524.961000L58.976000,524.668000L40.081000,513.811000L39.835900,513.933000Z" fill="rgb(3,31,96)" stroke="none" stroke-width="1"/><path id="e8pgLAwFKTC91" d="M17.963600,495.928000C17.473400,497.152000,18.711000,498.596000,21.982700,499.600000C25.254400,500.604000,25.548500,499.306000,25.548500,499.306000C27.730700,500.283000,29.857800,501.378000,31.920300,502.587000C33.880900,503.957000,34.750900,507.936000,35.020500,514.643000C35.326800,522.403000,35.351300,533.909000,35.094000,535.904000C35.094000,535.904000,31.417900,539.576000,26.724800,539.172000C22.031700,538.768000,14.103700,534.631000,12.192100,531.424000C12.192100,524.619000,13.037600,523.505000,11.934800,519.588000C9.410590,510.616000,8.074950,506.944000,9.312560,500.971000C10.317400,496.075000,11.763300,495.451000,13.687100,495.500000C15.119100,495.567000,16.546600,495.710000,17.963600,495.928000Z" transform="matrix(1 0 0 1 1.02545500000000 0)" fill="rgb(244,244,244)" stroke="none" stroke-width="1"/><path id="e8pgLAwFKTC92" d="M42.752500,522.978000C38.892600,523.958000,37.985900,521.522000,37.483500,519.515000C36.258100,514.619000,35.596400,510.237000,34.677400,507.470000C33.599100,504.215000,32.471800,503.688000,30.878800,503.052000C29.028500,502.305000,27.423300,503.884000,28.036000,508.033000C28.800200,512.852000,29.985100,517.595000,31.577300,522.207000C32.140900,524.284000,33.229500,526.180000,34.738700,527.715000C36.736000,529.331000,39.738100,529.258000,44.271900,528.131000C46.931000,527.227000,49.512600,526.109000,51.991700,524.790000C52.972000,524.337000,53.731700,524.031000,55.667700,523.150000C57.585700,522.313000,59.268700,521.018000,60.569200,519.380000C61.549400,517.948000,61.684200,517.275000,61.488200,516.932000C61.292100,516.589000,60.777500,516.614000,60.262800,517.213000C59.502300,518.226000,58.564000,519.093000,57.493500,519.772000C57.493500,519.772000,58.718900,518.548000,59.368300,517.703000C59.963400,516.957000,60.454000,516.133000,60.826500,515.255000C61.181800,514.423000,60.458900,513.297000,59.907500,513.884000C59.356100,514.472000,59.111000,515.108000,58.106200,516.332000C57.581500,516.970000,56.980700,517.541000,56.317200,518.033000C56.939000,517.198000,57.492200,516.314000,57.971400,515.390000C58.401300,514.648000,58.609700,513.798000,58.571800,512.942000C58.571800,512.513000,57.922400,511.999000,57.346500,512.819000C56.749700,513.988000,56.008700,515.078000,55.140800,516.063000C54.258600,516.981000,53.511100,517.507000,53.486600,517.287000C53.462100,517.067000,54.025800,516.528000,54.332100,515.475000C54.638400,514.423000,54.332100,513.284000,53.743900,513.162000C53.155800,513.040000,53.266000,513.064000,52.800400,514.068000C52.146300,515.089000,51.560900,516.152000,51.048200,517.250000C50.745900,518.275000,50.199300,519.212000,49.455200,519.980000C48.523900,520.947000,46.428600,522.060000,42.752500,522.978000Z" fill="rgb(255,206,169)" stroke="none" stroke-width="1"/><path id="e8pgLAwFKTC93" d="M29.408300,502.391000C31.981500,502.011000,33.807300,503.174000,34.946900,507.066000C36.086400,510.959000,36.870700,514.166000,36.870700,514.166000C35.853500,515.637000,34.309500,516.663000,32.557400,517.030000C29.481800,517.776000,28.366700,516.308000,28.366700,516.308000C28.366700,516.308000,27.509000,512.219000,26.982100,509.441000C26.455200,506.663000,26.271400,502.856000,29.408300,502.391000Z" fill="rgb(237,237,237)" stroke="none" stroke-width="1"/><path id="e8pgLAwFKTC94" d="M30.731600,482.427000C30.731600,482.427000,34.799800,476.246000,25.977200,474.985000C19.617600,474.080000,15.524900,478.156000,15.059300,482.586000C14.605900,486.821000,17.215900,491.216000,19.090700,492.966000C20.943100,493.437000,22.904800,493.201000,24.592600,492.305000C24.697700,491.149000,24.738600,489.989000,24.715100,488.829000C24.715100,488.829000,21.615000,482.317000,30.731600,482.427000Z" fill="rgb(115,81,42)" stroke="none" stroke-width="1"/><path id="e8pgLAwFKTC95" d="M48.389100,560.653000L48.389100,542.085000L33.623500,550.690000L39.309200,562.428000L48.389100,560.653000Z" fill="rgb(196,199,214)" stroke="none" stroke-width="1"/><path id="e8pgLAwFKTC96" d="M38.709000,543.150000L44.370100,539.870000L48.377000,542.183000L42.507600,545.512000L38.709000,543.150000Z" fill="rgb(214,216,229)" stroke="none" stroke-width="1"/></g><path id="e8pgLAwFKTC97" d="M44.014500,525.365000L44.909000,525.879000C44.953100,525.900000,45.001200,525.911000,45.049900,525.911000C45.098700,525.911000,45.146800,525.900000,45.190900,525.879000L46.048600,525.390000C46.134400,525.390000,46.146600,525.267000,46.048600,525.218000L45.154100,524.704000C45.107900,524.683000,45.057800,524.672000,45.007100,524.672000C44.956300,524.672000,44.906200,524.683000,44.860000,524.704000L44.014500,525.194000C43.953200,525.243000,43.941000,525.316000,44.014500,525.365000Z" fill="rgb(58,44,109)" stroke="none" stroke-width="1"/><g id="e8pgLAwFKTC98"><g id="e8pgLAwFKTC99"><path id="e8pgLAwFKTC100" d="M272.151000,459L202.404000,418.779000C197.368000,415.878000,198.005000,410.811000,203.813000,407.457000L249.004000,381.398000L336.972000,432.170000L291.794000,458.229000C285.973000,461.583000,277.187000,461.938000,272.151000,459Z" opacity="0.4" fill="rgb(214,216,229)" stroke="none" stroke-width="1"/><path id="e8pgLAwFKTC101" d="M277.249000,456.050000L207.489000,415.817000C202.465000,412.916000,203.102000,407.861000,208.898000,404.508000L254.089000,378.449000L342.058000,429.171000L296.867000,455.242000C291.058000,458.584000,282.273000,459,277.249000,456.050000Z" fill="rgb(177,180,196)" stroke="none" stroke-width="1"/><path id="e8pgLAwFKTC102" d="M342.057000,429.171000L342.057000,426.515000L338.001000,428.853000L342.057000,429.171000Z" fill="rgb(177,180,196)" stroke="none" stroke-width="1"/><path id="e8pgLAwFKTC103" d="M204.095000,411.031000L204.095000,408.326000L208.274000,410.052000L204.095000,411.031000Z" fill="rgb(177,180,196)" stroke="none" stroke-width="1"/><path id="e8pgLAwFKTC104" d="M277.249000,453.394000L207.489000,413.161000C202.465000,410.260000,203.102000,405.193000,208.898000,401.851000L254.089000,375.768000L342.058000,426.503000L296.867000,452.562000C291.058000,455.928000,282.273000,456.283000,277.249000,453.394000Z" fill="rgb(214,216,229)" stroke="none" stroke-width="1"/><path id="e8pgLAwFKTC105" d="M254.334000,375.903000L243.441000,339.819000L332.365000,390.774000L342.057000,426.515000L254.334000,375.903000Z" fill="rgb(158,161,175)" stroke="none" stroke-width="1"/><path id="e8pgLAwFKTC106" d="M339.484000,427.996000L342.058000,426.515000L338.198000,423.504000L339.484000,427.996000Z" fill="rgb(158,161,175)" stroke="none" stroke-width="1"/><path id="e8pgLAwFKTC107" d="M251.528000,377.261000L240.635000,341.178000L329.559000,392.133000L339.484000,427.996000L251.528000,377.261000Z" fill="rgb(177,180,196)" stroke="none" stroke-width="1"/><path id="e8pgLAwFKTC108" d="M477.263000,488.804000L133.049000,290.296000C128.221000,287.505000,124.312000,280.039000,124.312000,273.613000L124.312000,7.650000C124.312000,1.224000,128.221000,-1.738080,133.049000,1.052640L477.263000,199.512000C482.091000,202.290000,486,209.757000,486,216.195000L486,482.256000C486,488.633000,482.091000,491.595000,477.263000,488.804000Z" fill="rgb(196,199,214)" stroke="none" stroke-width="1"/><path id="e8pgLAwFKTC109" d="M479.028000,491.546000L482.851000,489.355000L481.197000,478.058000L479.028000,491.546000Z" fill="rgb(196,199,214)" stroke="none" stroke-width="1"/><path id="e8pgLAwFKTC110" d="M123.687000,2.680550L127.437000,0.526306L132.828000,3.598550C132.828000,3.598550,127.081000,4.467590,126.946000,4.430870C126.812000,4.394150,123.687000,2.680550,123.687000,2.680550Z" fill="rgb(177,180,196)" stroke="none" stroke-width="1"/><path id="e8pgLAwFKTC111" d="M474.102000,490.628000L129.888000,292.120000C125.060000,289.329000,121.139000,281.863000,121.139000,275.437000L121.139000,9.473800C121.139000,3.035560,125.060000,0.085717,129.888000,2.864200L474.090000,201.373000C478.918000,204.163000,482.839000,211.630000,482.839000,218.068000L482.839000,484.019000C482.851000,490.457000,478.930000,493.407000,474.102000,490.628000Z" fill="rgb(228,231,242)" stroke="none" stroke-width="1"/><path id="e8pgLAwFKTC112" d="M473.501000,490.971000L129.287000,292.463000C124.459000,289.672000,120.550000,282.205000,120.550000,275.779000L120.550000,9.792030C120.550000,3.366030,124.459000,0.403954,129.287000,3.194670L473.501000,201.727000C478.329000,204.506000,482.238000,211.972000,482.238000,218.411000L482.238000,484.374000C482.238000,490.824000,478.329000,493.762000,473.501000,490.971000Z" fill="rgb(32,29,56)" stroke="none" stroke-width="1"/><path id="e8pgLAwFKTC113" d="M477.508000,474.802000L124.913000,271.459000L125.096000,10.881400C125.096000,8.213050,126.971000,7.135930,129.287000,8.433370L473.501000,206.978000C474.721000,207.772000,475.737000,208.841000,476.465000,210.100000C477.193000,211.360000,477.613000,212.773000,477.692000,214.224000L477.508000,474.802000Z" opacity="0.3" fill="url(#e8pgLAwFKTC113-fill)" stroke="none" stroke-width="1"/></g><g id="e8pgLAwFKTC114"><path id="e8pgLAwFKTC115" d="M434.474000,242.523000L343.332000,189.904000L343.332000,181.482000L434.474000,234.102000L434.474000,242.523000Z" fill="rgb(162,152,226)" stroke="none" stroke-width="1"/><path id="e8pgLAwFKTC116" d="M371.074000,300.210000L343.332000,284.201000L343.332000,275.792000L371.074000,291.789000L371.074000,300.210000Z" fill="rgb(195,58,252)" stroke="none" stroke-width="1"/><path id="e8pgLAwFKTC117" d="M221.397000,176.427000L192.197000,159.585000L192.197000,151.164000L221.397000,168.006000L221.397000,176.427000Z" fill="rgb(195,58,252)" stroke="none" stroke-width="1"/><path id="e8pgLAwFKTC118" d="M359.776000,213.062000L343.332000,203.380000L343.332000,194.959000L359.776000,204.641000L359.776000,213.062000Z" fill="rgb(77,59,255)" stroke="none" stroke-width="1"/></g><g id="e8pgLAwFKTC119"><path id="e8pgLAwFKTC120" d="M353.551000,263.160000L343.332000,257.260000L343.332000,248.839000L353.551000,254.739000L353.551000,263.160000Z" fill="rgb(77,59,255)" stroke="none" stroke-width="1"/><path id="e8pgLAwFKTC121" d="M284.184000,239.586000L192.197000,186.538000L192.197000,178.116000L284.184000,231.165000L284.184000,239.586000Z" fill="rgb(244,206,44)" stroke="none" stroke-width="1"/><path id="e8pgLAwFKTC122" d="M338.957000,295.155000L315.590000,281.679000L315.590000,273.258000L338.957000,286.734000L338.957000,295.155000Z" fill="rgb(162,152,226)" stroke="none" stroke-width="1"/><path id="e8pgLAwFKTC123" d="M338.957000,200.846000L315.590000,187.382000L315.590000,178.961000L338.957000,192.425000L338.957000,200.846000Z" fill="rgb(162,152,226)" stroke="none" stroke-width="1"/></g><g id="e8pgLAwFKTC124"><path id="e8pgLAwFKTC125" d="M400.017000,330.517000L343.332000,297.677000L343.332000,289.256000L400.017000,322.096000L400.017000,330.517000Z" fill="rgb(77,59,255)" stroke="none" stroke-width="1"/><path id="e8pgLAwFKTC126" d="M338.957000,308.632000L315.590000,295.155000L315.590000,286.734000L338.957000,300.210000L338.957000,308.632000Z" fill="rgb(162,152,226)" stroke="none" stroke-width="1"/><path id="e8pgLAwFKTC127" d="M187.822000,264.837000L164.455000,251.373000L164.455000,242.952000L187.822000,256.416000L187.822000,264.837000Z" fill="rgb(162,152,226)" stroke="none" stroke-width="1"/><path id="e8pgLAwFKTC128" d="M338.957000,268.215000L315.590000,254.739000L315.590000,246.318000L338.957000,259.794000L338.957000,268.215000Z" fill="rgb(162,152,226)" stroke="none" stroke-width="1"/><path id="e8pgLAwFKTC129" d="M291.487000,149.487000L192.197000,92.228400L192.197000,83.807300L291.487000,141.066000L291.487000,149.487000Z" fill="rgb(195,58,252)" stroke="none" stroke-width="1"/></g><g id="e8pgLAwFKTC130"><path id="e8pgLAwFKTC131" d="M349.998000,355.780000L343.332000,351.570000L343.332000,343.148000L349.998000,347.359000L349.998000,355.780000Z" fill="rgb(162,152,226)" stroke="none" stroke-width="1"/><path id="e8pgLAwFKTC132" d="M338.957000,335.572000L315.590000,322.096000L315.590000,313.674000L338.957000,327.151000L338.957000,335.572000Z" fill="rgb(162,152,226)" stroke="none" stroke-width="1"/><path id="e8pgLAwFKTC133" d="M269.578000,217.688000L192.197000,173.061000L192.197000,164.640000L269.578000,209.267000L269.578000,217.688000Z" fill="rgb(77,59,255)" stroke="none" stroke-width="1"/><path id="e8pgLAwFKTC134" d="M291.487000,297.677000L192.197000,240.418000L192.197000,231.997000L291.487000,289.256000L291.487000,297.677000Z" fill="rgb(77,59,255)" stroke="none" stroke-width="1"/></g><g id="e8pgLAwFKTC135" opacity="0"><path id="e8pgLAwFKTC136" d="M273.965000,179.793000L192.197000,132.645000L192.197000,124.224000L273.965000,171.372000L273.965000,179.793000Z" fill="rgb(255,134,87)" stroke="none" stroke-width="1"/><path id="e8pgLAwFKTC137" d="M338.957000,281.679000L315.590000,268.215000L315.590000,259.794000L338.957000,273.258000L338.957000,281.679000Z" fill="rgb(162,152,226)" stroke="none" stroke-width="1"/><path id="e8pgLAwFKTC138" d="M257.900000,157.064000L192.197000,119.169000L192.197000,110.747000L257.900000,148.643000L257.900000,157.064000Z" fill="rgb(244,206,44)" stroke="none" stroke-width="1"/><path id="e8pgLAwFKTC139" d="M338.957000,241.263000L315.590000,227.786000L315.590000,219.365000L338.957000,232.842000L338.957000,241.263000Z" fill="rgb(162,152,226)" stroke="none" stroke-width="1"/><path id="e8pgLAwFKTC140" d="M273.965000,260.626000L192.197000,213.478000L192.197000,205.057000L273.965000,252.217000L273.965000,260.626000Z" fill="rgb(162,152,226)" stroke="none" stroke-width="1"/><path id="e8pgLAwFKTC141" d="M187.822000,237.897000L164.455000,224.420000L164.455000,215.999000L187.822000,229.476000L187.822000,237.897000Z" fill="rgb(162,152,226)" stroke="none" stroke-width="1"/><path id="e8pgLAwFKTC142" d="M422.171000,290.100000L343.332000,243.796000L343.332000,235.375000L422.171000,281.679000L422.171000,290.100000Z" fill="rgb(195,58,252)" stroke="none" stroke-width="1"/><path id="e8pgLAwFKTC143" d="M373.954000,382.659000L343.332000,365.046000L343.332000,356.625000L373.954000,374.238000L373.954000,382.659000Z" fill="rgb(244,206,44)" stroke="none" stroke-width="1"/></g><g id="e8pgLAwFKTC144"><path id="e8pgLAwFKTC145" d="M219.939000,215.999000L192.197000,200.002000L192.197000,191.581000L219.939000,207.578000L219.939000,215.999000Z" fill="rgb(255,134,87)" stroke="none" stroke-width="1"/><path id="e8pgLAwFKTC146" d="M187.822000,224.420000L164.455000,210.944000L164.455000,202.535000L187.822000,215.999000L187.822000,224.420000Z" fill="rgb(162,152,226)" stroke="none" stroke-width="1"/><path id="e8pgLAwFKTC147" d="M435.319000,323.785000L343.332000,270.737000L343.332000,262.315000L435.319000,315.364000L435.319000,323.785000Z" fill="rgb(162,152,226)" stroke="none" stroke-width="1"/><path id="e8pgLAwFKTC148" d="M396.721000,368.497000L343.332000,338.093000L343.332000,329.672000L396.721000,360.076000L396.721000,368.497000Z" fill="rgb(255,134,87)" stroke="none" stroke-width="1"/><path id="e8pgLAwFKTC149" d="M241.836000,296L192.197000,267.371000L192.197000,258.949000L241.836000,287.579000L241.836000,296Z" fill="rgb(255,134,87)" stroke="none" stroke-width="1"/><path id="e8pgLAwFKTC150" d="M392.971000,205.081000L343.332000,176.427000L343.332000,168.006000L392.971000,196.660000L392.971000,205.081000Z" fill="rgb(244,206,44)" stroke="none" stroke-width="1"/></g><g id="e8pgLAwFKTC151" opacity="0"><path id="e8pgLAwFKTC152" d="M338.957000,254.739000L315.590000,241.263000L315.590000,232.841000L338.957000,246.318000L338.957000,254.739000Z" fill="rgb(162,152,226)" stroke="none" stroke-width="1"/><path id="e8pgLAwFKTC153" d="M187.822000,143.587000L164.455000,130.123000L164.455000,121.702000L187.822000,135.166000L187.822000,143.587000Z" fill="rgb(162,152,226)" stroke="none" stroke-width="1"/><path id="e8pgLAwFKTC154" d="M202.416000,232.842000L192.197000,226.954000L192.197000,218.533000L202.416000,224.420000L202.416000,232.842000Z" fill="rgb(195,58,252)" stroke="none" stroke-width="1"/><path id="e8pgLAwFKTC155" d="M211.177000,264.837000L192.197000,253.894000L192.197000,245.473000L211.177000,256.416000L211.177000,264.837000Z" fill="rgb(244,206,44)" stroke="none" stroke-width="1"/><path id="e8pgLAwFKTC156" d="M371.074000,232.842000L343.332000,216.844000L343.332000,208.423000L371.074000,224.420000L371.074000,232.842000Z" fill="rgb(77,59,255)" stroke="none" stroke-width="1"/><path id="e8pgLAwFKTC157" d="M187.822000,130.123000L164.455000,116.647000L164.455000,108.226000L187.822000,121.702000L187.822000,130.123000Z" fill="rgb(162,152,226)" stroke="none" stroke-width="1"/><path id="e8pgLAwFKTC158" d="M187.822000,170.540000L164.455000,157.064000L164.455000,148.643000L187.822000,162.119000L187.822000,170.540000Z" fill="rgb(162,152,226)" stroke="none" stroke-width="1"/></g><g id="e8pgLAwFKTC159"><path id="e8pgLAwFKTC160" d="M187.822000,210.956000L164.455000,197.480000L164.455000,189.059000L187.822000,202.535000L187.822000,210.956000Z" fill="rgb(162,152,226)" stroke="none" stroke-width="1"/><path id="e8pgLAwFKTC161" d="M187.822000,157.064000L164.455000,143.587000L164.455000,135.166000L187.822000,148.643000L187.822000,157.064000Z" fill="rgb(162,152,226)" stroke="none" stroke-width="1"/><path id="e8pgLAwFKTC162" d="M187.822000,89.707000L164.455000,76.230700L164.455000,67.809600L187.822000,81.285900L187.822000,89.707000Z" fill="rgb(162,152,226)" stroke="none" stroke-width="1"/><path id="e8pgLAwFKTC163" d="M187.822000,116.647000L164.455000,103.171000L164.455000,94.749900L187.822000,108.226000L187.822000,116.647000Z" fill="rgb(162,152,226)" stroke="none" stroke-width="1"/><path id="e8pgLAwFKTC164" d="M187.822000,197.480000L164.455000,184.004000L164.455000,175.583000L187.822000,189.059000L187.822000,197.480000Z" fill="rgb(162,152,226)" stroke="none" stroke-width="1"/><path id="e8pgLAwFKTC165" d="M379.921000,332.206000L343.332000,311.153000L343.332000,302.732000L379.921000,323.785000L379.921000,332.206000Z" fill="rgb(195,58,252)" stroke="none" stroke-width="1"/><path id="e8pgLAwFKTC166" d="M249.139000,178.961000L192.197000,146.121000L192.197000,137.700000L249.139000,170.540000L249.139000,178.961000Z" fill="rgb(162,152,226)" stroke="none" stroke-width="1"/><path id="e8pgLAwFKTC167" d="M338.957000,362.512000L315.590000,349.048000L315.590000,340.627000L338.957000,354.091000L338.957000,362.512000Z" fill="rgb(162,152,226)" stroke="none" stroke-width="1"/></g><g id="e8pgLAwFKTC168" opacity="0"><path id="e8pgLAwFKTC169" d="M338.957000,214.322000L315.590000,200.846000L315.590000,192.425000L338.957000,205.901000L338.957000,214.322000Z" fill="rgb(162,152,226)" stroke="none" stroke-width="1"/><path id="e8pgLAwFKTC170" d="M385.938000,349.048000L343.332000,324.617000L343.332000,316.208000L385.938000,340.627000L385.938000,349.048000Z" fill="rgb(77,59,255)" stroke="none" stroke-width="1"/><path id="e8pgLAwFKTC171" d="M338.957000,349.048000L315.590000,335.572000L315.590000,327.151000L338.957000,340.627000L338.957000,349.048000Z" fill="rgb(162,152,226)" stroke="none" stroke-width="1"/><path id="e8pgLAwFKTC172" d="M338.957000,187.382000L315.590000,173.906000L315.590000,165.485000L338.957000,178.961000L338.957000,187.382000Z" fill="rgb(162,152,226)" stroke="none" stroke-width="1"/><path id="e8pgLAwFKTC173" d="M271.036000,326.306000L192.197000,280.835000L192.197000,272.413000L271.036000,317.885000L271.036000,326.306000Z" fill="rgb(162,152,226)" stroke="none" stroke-width="1"/></g><g id="e8pgLAwFKTC174"><path id="e8pgLAwFKTC175" d="M187.822000,251.373000L164.455000,237.897000L164.455000,229.476000L187.822000,242.952000L187.822000,251.373000Z" fill="rgb(162,152,226)" stroke="none" stroke-width="1"/><path id="e8pgLAwFKTC176" d="M416.498000,272.413000L343.332000,230.320000L343.332000,221.899000L416.498000,264.005000L416.498000,272.413000Z" fill="rgb(255,134,87)" stroke="none" stroke-width="1"/><path id="e8pgLAwFKTC177" d="M241.836000,134.334000L192.197000,105.705000L192.197000,97.283500L241.836000,125.913000L241.836000,134.334000Z" fill="rgb(77,59,255)" stroke="none" stroke-width="1"/></g></g><g id="e8pgLAwFKTC178" transform="matrix(1 0 0 1 0 0.00149475000001)"><path id="e8pgLAwFKTC179" d="M367.300000,612C395.615000,612,418.569000,598.760000,418.569000,582.428000C418.569000,566.096000,395.615000,552.856000,367.300000,552.856000C338.985000,552.856000,316.031000,566.096000,316.031000,582.428000C316.031000,598.760000,338.985000,612,367.300000,612Z" opacity="0.4" fill="rgb(214,216,229)" stroke="none" stroke-width="1"/><path id="e8pgLAwFKTC180" d="M423.605000,578.230000L423.605000,499.392000L321.276000,501.962000L321.496000,574.668000C319.585000,583.420000,324.437000,592.563000,336.090000,599.283000C356.113000,610.825000,388.572000,610.837000,408.595000,599.283000C418.655000,593.444000,423.654000,585.831000,423.605000,578.230000Z" fill="rgb(166,206,40)" stroke="none" stroke-width="1"/><path id="e8pgLAwFKTC181" d="M372.336000,528.927000C400.651000,528.927000,423.605000,515.687000,423.605000,499.355000C423.605000,483.023000,400.651000,469.783000,372.336000,469.783000C344.021000,469.783000,321.067000,483.023000,321.067000,499.355000C321.067000,515.687000,344.021000,528.927000,372.336000,528.927000Z" fill="rgb(188,214,77)" stroke="none" stroke-width="1"/><path id="e8pgLAwFKTC182" d="M415.505000,499.392000C415.505000,504.202000,411.498000,509.257000,404.538000,513.284000C396.941000,517.642000,386.562000,520.335000,375.632000,520.775000C374.542000,520.775000,373.451000,520.849000,372.348000,520.849000C360.217000,520.849000,348.491000,518.082000,340.146000,513.284000C333.186000,509.257000,329.179000,504.202000,329.179000,499.392000C329.179000,494.582000,333.186000,489.527000,340.146000,485.500000C348.491000,480.689000,360.217000,477.923000,372.336000,477.923000C373.439000,477.923000,374.542000,477.923000,375.632000,477.996000C386.562000,478.437000,396.941000,481.130000,404.538000,485.500000C411.498000,489.490000,415.505000,494.496000,415.505000,499.392000Z" fill="rgb(40,34,28)" stroke="none" stroke-width="1"/><path id="e8pgLAwFKTC183" d="M415.505000,499.392000C415.505000,504.202000,411.498000,509.257000,404.538000,513.284000C396.941000,517.642000,386.562000,520.335000,375.632000,520.775000C364.702000,520.335000,354.311000,517.642000,346.726000,513.284000C339.754000,509.184000,335.747000,504.166000,335.747000,499.392000C335.747000,494.618000,339.742000,489.527000,346.702000,485.500000C354.299000,481.130000,364.690000,478.437000,375.620000,477.996000C386.550000,478.437000,396.929000,481.130000,404.526000,485.500000C411.498000,489.490000,415.505000,494.496000,415.505000,499.392000Z" opacity="0.07" fill="rgb(255,255,255)" stroke="none" stroke-width="1"/><path id="e8pgLAwFKTC184" d="M416.106000,535.879000L405.225000,529.588000L399.931000,532.648000L405.225000,535.708000L405.225000,537.715000L415.432000,543.591000L415.126000,545.476000C416.608000,546.700000,421.889000,556.492000,421.889000,556.492000L422.257000,556.149000L422.257000,581.522000C422.257000,588.181000,418.348000,585.929000,416.682000,584.962000L405.225000,578.352000L399.931000,581.400000L405.225000,584.448000L405.225000,586.455000L416.682000,593.065000C417.839000,593.758000,419.073000,594.317000,420.358000,594.729000L419.672000,597.912000L425.602000,594.570000L425.688000,594.570000L425.774000,594.570000C428.225000,593.126000,429.266000,589.613000,429.266000,585.672000L429.266000,559.050000C429.315000,547.801000,420.676000,538.976000,416.106000,535.879000Z" fill="rgb(141,160,31)" stroke="none" stroke-width="1"/><path id="e8pgLAwFKTC185" d="M411.388000,596.161000L399.931000,589.552000L399.931000,581.400000L411.388000,588.010000C413.055000,588.964000,416.964000,591.229000,416.964000,584.558000L416.964000,558.058000C416.964000,551.791000,411.290000,547.458000,410.322000,546.773000L399.931000,540.775000L399.931000,532.648000L410.812000,538.939000C415.395000,542.036000,423.973000,550.873000,423.973000,562.122000L423.973000,588.646000C423.973000,595.806000,420.701000,601.523000,411.388000,596.161000Z" fill="rgb(153,181,36)" stroke="none" stroke-width="1"/></g><g id="e8pgLAwFKTC186" transform="matrix(1 0 0 1 0 -6)"><path id="e8pgLAwFKTC187" d="M50.693100,455.340000C70.190100,455.340000,85.995500,446.221000,85.995500,434.973000C85.995500,423.724000,70.190100,414.605000,50.693100,414.605000C31.196100,414.605000,15.390600,423.724000,15.390600,434.973000C15.390600,446.221000,31.196100,455.340000,50.693100,455.340000Z" opacity="0.4" fill="rgb(214,216,229)" stroke="none" stroke-width="1"/><path id="e8pgLAwFKTC188" d="M55.729200,451.570000C75.226200,451.570000,91.031700,442.452000,91.031700,431.203000C91.031700,419.954000,75.226200,410.836000,55.729200,410.836000C36.232200,410.836000,20.426800,419.954000,20.426800,431.203000C20.426800,442.452000,36.232200,451.570000,55.729200,451.570000Z" fill="rgb(214,216,229)" stroke="none" stroke-width="1"/><path id="e8pgLAwFKTC189" d="M8.467290,361.582000L20.818900,432.611000L90.945900,432.611000L102.991000,362.096000L8.467290,361.582000Z" fill="rgb(214,216,229)" stroke="none" stroke-width="1"/><path id="e8pgLAwFKTC190" d="M55.728900,387.983000C81.858000,387.983000,103.040000,375.768000,103.040000,360.701000C103.040000,345.633000,81.858000,333.418000,55.728900,333.418000C29.599800,333.418000,8.417970,345.633000,8.417970,360.701000C8.417970,375.768000,29.599800,387.983000,55.728900,387.983000Z" fill="rgb(228,230,239)" stroke="none" stroke-width="1"/><path id="e8pgLAwFKTC191" d="M55.729000,381.961000C44.137100,381.961000,33.329500,379.415000,25.291200,374.777000C18.392400,370.811000,14.446800,365.670000,14.446800,360.701000C14.446800,355.731000,18.392400,350.590000,25.291200,346.625000C33.317200,341.986000,44.137100,339.440000,55.729000,339.440000C67.320800,339.440000,78.140700,341.986000,86.166800,346.625000C93.065500,350.590000,97.011100,355.731000,97.011100,360.701000C97.011100,365.670000,93.126800,370.872000,86.166800,374.777000C78.140700,379.440000,67.394300,381.961000,55.729000,381.961000Z" fill="rgb(40,34,28)" stroke="none" stroke-width="1"/><path id="e8pgLAwFKTC192" d="M76.082300,339.207000C76.751900,330.028000,75.288700,320.819000,71.807000,312.299000C68.325300,303.778000,62.919300,296.177000,56.011000,290.088000L55.876200,289.953000L55.876200,290.210000C48.961500,296.300000,43.550700,303.905000,40.066600,312.430000C36.582600,320.956000,35.119800,330.170000,35.792700,339.354000L8.724610,336.747000C20.144900,379.721000,56.011000,376.025000,56.011000,376.025000L56.011000,375.939000C58.719100,376.147000,92.171200,377.873000,103.114000,336.649000L76.082300,339.207000Z" fill="rgb(153,181,36)" stroke="none" stroke-width="1"/><path id="e8pgLAwFKTC193" d="M56.010800,376.025000C56.010800,376.025000,53.560100,342.561000,8.614090,320.027000C8.577330,320.027000,-2.034240,375.621000,56.010800,376.025000Z" transform="matrix(1 0 0 1 -2.77169847000000 1.43868621000007)" fill="rgb(166,206,40)" stroke="none" stroke-width="1"/><path id="e8pgLAwFKTC194" d="M55.729000,376.025000C55.729000,376.025000,58.179700,342.561000,103.126000,320.027000C103.126000,320.027000,113.774000,375.621000,55.729000,376.025000Z" transform="matrix(1 0 0 1 2.33864639999999 1.02256138343751)" fill="rgb(166,206,40)" stroke="none" stroke-width="1"/></g><script><![CDATA[!function(t,n){"object"==typeof exports&&"undefined"!=typeof module?module.exports=n():"function"==typeof define&&define.amd?define(n):(t="undefined"!=typeof globalThis?globalThis:t||self).__SVGATOR_PLAYER__=n()}(this,(function(){"use strict";function t(n){return(t="function"==typeof Symbol&&"symbol"==typeof Symbol.iterator?function(t){return typeof t}:function(t){return t&&"function"==typeof Symbol&&t.constructor===Symbol&&t!==Symbol.prototype?"symbol":typeof t})(n)}function n(t,n){if(!(t instanceof n))throw new TypeError("Cannot call a class as a function")}function r(t,n){for(var r=0;r<n.length;r++){var e=n[r];e.enumerable=e.enumerable||!1,e.configurable=!0,"value"in e&&(e.writable=!0),Object.defineProperty(t,e.key,e)}}function e(t,n,e){return n&&r(t.prototype,n),e&&r(t,e),t}function i(t){return(i=Object.setPrototypeOf?Object.getPrototypeOf:function(t){return t.__proto__||Object.getPrototypeOf(t)})(t)}function o(t,n){return(o=Object.setPrototypeOf||function(t,n){return t.__proto__=n,t})(t,n)}function u(t,n){return!n||"object"!=typeof n&&"function"!=typeof n?function(t){if(void 0===t)throw new ReferenceError("this hasn't been initialised - super() hasn't been called");return t}(t):n}function a(t){var n=function(){if("undefined"==typeof Reflect||!Reflect.construct)return!1;if(Reflect.construct.sham)return!1;if("function"==typeof Proxy)return!0;try{return Boolean.prototype.valueOf.call(Reflect.construct(Boolean,[],(function(){}))),!0}catch(t){return!1}}();return function(){var r,e=i(t);if(n){var o=i(this).constructor;r=Reflect.construct(e,arguments,o)}else r=e.apply(this,arguments);return u(this,r)}}function l(t,n,r){return(l="undefined"!=typeof Reflect&&Reflect.get?Reflect.get:function(t,n,r){var e=function(t,n){for(;!Object.prototype.hasOwnProperty.call(t,n)&&null!==(t=i(t)););return t}(t,n);if(e){var o=Object.getOwnPropertyDescriptor(e,n);return o.get?o.get.call(r):o.value}})(t,n,r||t)}var f=Math.abs;function s(t){return t}function c(t,n,r){var e=1-r;return 3*r*e*(t*e+n*r)+r*r*r}function h(){var t=arguments.length>0&&void 0!==arguments[0]?arguments[0]:0,n=arguments.length>1&&void 0!==arguments[1]?arguments[1]:0,r=arguments.length>2&&void 0!==arguments[2]?arguments[2]:1,e=arguments.length>3&&void 0!==arguments[3]?arguments[3]:1;return t<0||t>1||r<0||r>1?null:f(t-n)<=1e-5&&f(r-e)<=1e-5?s:function(i){if(i<=0)return t>0?i*n/t:0===n&&r>0?i*e/r:0;if(i>=1)return r<1?1+(i-1)*(e-1)/(r-1):1===r&&t<1?1+(i-1)*(n-1)/(t-1):1;for(var o,u=0,a=1;u<a;){var l=c(t,r,o=(u+a)/2);if(f(i-l)<1e-5)break;l<i?u=o:a=o}return c(n,e,o)}}function v(){return 1}function y(t){return 1===t?1:0}function d(){var t=arguments.length>0&&void 0!==arguments[0]?arguments[0]:1,n=arguments.length>1&&void 0!==arguments[1]?arguments[1]:0;if(1===t){if(0===n)return y;if(1===n)return v}var r=1/t;return function(t){return t>=1?1:(t+=n*r)-t%r}}function g(t){var n=arguments.length>1&&void 0!==arguments[1]?arguments[1]:2;if(Number.isInteger(t))return t;var r=Math.pow(10,n);return Math.round(t*r)/r}var p=Math.PI/180;function m(t,n,r){return t>=.5?r:n}function b(t,n,r){return 0===t||n===r?n:t*(r-n)+n}function w(t,n,r){var e=b(t,n,r);return e<=0?0:e}function x(t,n,r){return 0===t?n:1===t?r:{x:b(t,n.x,r.x),y:b(t,n.y,r.y)}}function k(t,n,r){var e=function(t,n,r){return Math.round(b(t,n,r))}(t,n,r);return e<=0?0:e>=255?255:e}function A(t,n,r){return 0===t?n:1===t?r:{r:k(t,n.r,r.r),g:k(t,n.g,r.g),b:k(t,n.b,r.b),a:b(t,null==n.a?1:n.a,null==r.a?1:r.a)}}function _(t,n,r){if(0===t)return n;if(1===t)return r;var e=n.length;if(e!==r.length)return m(t,n,r);for(var i=[],o=0;o<e;o++)i.push(A(t,n[o],r[o]));return i}function S(t,n){for(var r=[],e=0;e<t;e++)r.push(n);return r}function O(t,n){if(--n<=0)return t;var r=(t=Object.assign([],t)).length;do{for(var e=0;e<r;e++)t.push(t[e])}while(--n>0);return t}var M,j=function(){function t(r){n(this,t),this.list=r,this.length=r.length}return e(t,[{key:"setAttribute",value:function(t,n){for(var r=this.list,e=0;e<this.length;e++)r[e].setAttribute(t,n)}},{key:"removeAttribute",value:function(t){for(var n=this.list,r=0;r<this.length;r++)n[r].removeAttribute(t)}},{key:"style",value:function(t,n){for(var r=this.list,e=0;e<this.length;e++)r[e].style[t]=n}}]),t}(),F=/-./g,P=function(t,n){return n.toUpperCase()};function B(t){return"function"==typeof t?t:m}function I(t){return t?"function"==typeof t?t:Array.isArray(t)?function(t){var n=arguments.length>1&&void 0!==arguments[1]?arguments[1]:s;if(!Array.isArray(t))return n;switch(t.length){case 1:return d(t[0])||n;case 2:return d(t[0],t[1])||n;case 4:return h(t[0],t[1],t[2],t[3])||n}return n}(t,null):function(t,n){var r=arguments.length>2&&void 0!==arguments[2]?arguments[2]:s;switch(t){case"linear":return s;case"steps":return d(n.steps||1,n.jump||0)||r;case"bezier":case"cubic-bezier":return h(n.x1||0,n.y1||0,n.x2||0,n.y2||0)||r}return r}(t.type,t.value,null):null}function R(t,n,r){var e=arguments.length>3&&void 0!==arguments[3]&&arguments[3],i=n.length-1;if(t<=n[0].t)return e?[0,0,n[0].v]:n[0].v;if(t>=n[i].t)return e?[i,1,n[i].v]:n[i].v;var o,u=n[0],a=null;for(o=1;o<=i;o++){if(!(t>n[o].t)){a=n[o];break}u=n[o]}return null==a?e?[i,1,n[i].v]:n[i].v:u.t===a.t?e?[o,1,a.v]:a.v:(t=(t-u.t)/(a.t-u.t),u.e&&(t=u.e(t)),e?[o,t,r(t,u.v,a.v)]:r(t,u.v,a.v))}function q(t,n){var r=arguments.length>2&&void 0!==arguments[2]?arguments[2]:null;return t&&t.length?"function"!=typeof n?null:("function"!=typeof r&&(r=null),function(e){var i=R(e,t,n);return null!=i&&r&&(i=r(i)),i}):null}function E(t,n){return t.t-n.t}function T(n,r,e,i,o){var u,a="@"===e[0],l="#"===e[0],f=M[e],s=m;switch(a?(u=e.substr(1),e=u.replace(F,P)):l&&(e=e.substr(1)),t(f)){case"function":if(s=f(i,o,R,I,e,a,r,n),l)return s;break;case"string":s=q(i,B(f));break;case"object":if((s=q(i,B(f.i),f.f))&&"function"==typeof f.u)return f.u(r,s,e,a,n)}return s?function(t,n,r){var e=arguments.length>3&&void 0!==arguments[3]&&arguments[3];if(e)return t instanceof j?function(e){return t.style(n,r(e))}:function(e){return t.style[n]=r(e)};if(Array.isArray(n)){var i=n.length;return function(e){var o=r(e);if(null==o)for(var u=0;u<i;u++)t[u].removeAttribute(n);else for(var a=0;a<i;a++)t[a].setAttribute(n,o)}}return function(e){var i=r(e);null==i?t.removeAttribute(n):t.setAttribute(n,i)}}(r,e,s,a):null}function N(n,r,e,i){if(!i||"object"!==t(i))return null;var o=null,u=null;return Array.isArray(i)?u=function(t){if(!t||!t.length)return null;for(var n=0;n<t.length;n++)t[n].e&&(t[n].e=I(t[n].e));return t.sort(E)}(i):(u=i.keys,o=i.data||null),u?T(n,r,e,u,o):null}function C(t,n,r){if(!r)return null;var e=[];for(var i in r)if(r.hasOwnProperty(i)){var o=N(t,n,i,r[i]);o&&e.push(o)}return e.length?e:null}function z(t,n){if(!n.duration||n.duration<0)return null;var r=function(t,n){if(!n)return null;var r=[];if(Array.isArray(n))for(var e=n.length,i=0;i<e;i++){var o=n[i];if(2===o.length){var u=null;if("string"==typeof o[0])u=t.getElementById(o[0]);else if(Array.isArray(o[0])){u=[];for(var a=0;a<o[0].length;a++)if("string"==typeof o[0][a]){var l=t.getElementById(o[0][a]);l&&u.push(l)}u=u.length?1===u.length?u[0]:new j(u):null}if(u){var f=C(t,u,o[1]);f&&(r=r.concat(f))}}}else for(var s in n)if(n.hasOwnProperty(s)){var c=t.getElementById(s);if(c){var h=C(t,c,n[s]);h&&(r=r.concat(h))}}return r.length?r:null}(t,n.elements);return r?function(t,n){var r=arguments.length>2&&void 0!==arguments[2]?arguments[2]:1/0,e=arguments.length>3&&void 0!==arguments[3]?arguments[3]:1,i=arguments.length>4&&void 0!==arguments[4]&&arguments[4],o=arguments.length>5&&void 0!==arguments[5]?arguments[5]:1,u=t.length,a=e>0?n:0;i&&r%2==0&&(a=n-a);var l=null;return function(f,s){var c=f%n,h=1+(f-c)/n;s*=e,i&&h%2==0&&(s=-s);var v=!1;if(h>r)c=a,v=!0,-1===o&&(c=e>0?0:n);else if(s<0&&(c=n-c),c===l)return!1;l=c;for(var y=0;y<u;y++)t[y](c);return v}}(r,n.duration,n.iterations||1/0,n.direction||1,!!n.alternate,n.fill||1):null}var L=function(){function t(r,e){var i=arguments.length>2&&void 0!==arguments[2]?arguments[2]:{};n(this,t),this._id=0,this._running=!1,this._rollingBack=!1,this._animations=r,this.duration=e.duration,this.alternate=e.alternate,this.fill=e.fill,this.iterations=e.iterations,this.direction=i.direction||1,this.speed=i.speed||1,this.fps=i.fps||100,this.offset=i.offset||0,this.rollbackStartOffset=0}return e(t,[{key:"_rollback",value:function(){var t=this,n=1/0,r=null;this.rollbackStartOffset=this.offset,this._rollingBack||(this._rollingBack=!0,this._running=!0);this._id=window.requestAnimationFrame((function e(i){if(t._rollingBack){null==r&&(r=i);var o=i-r,u=t.rollbackStartOffset-o,a=Math.round(u*t.speed);if(a>t.duration&&n!=1/0){var l=!!t.alternate&&a/t.duration%2>1,f=a%t.duration;a=(f+=l?t.duration:0)||t.duration}var s=t.fps?1e3/t.fps:0,c=Math.max(0,a);if(c<n-s){t.offset=c,n=c;for(var h=t._animations,v=h.length,y=0;y<v;y++)h[y](c,t.direction)}var d=!1;if(t.iterations>0&&-1===t.fill){var g=t.iterations*t.duration,p=g==a;a=p?0:a,t.offset=p?0:t.offset,d=a>g}a>0&&t.offset>=a&&!d?t._id=window.requestAnimationFrame(e):t.stop()}}))}},{key:"_start",value:function(){var t=this,n=arguments.length>0&&void 0!==arguments[0]?arguments[0]:0,r=-1/0,e=null,i={},o=function o(u){t._running=!0,null==e&&(e=u);var a=Math.round((u-e+n)*t.speed),l=t.fps?1e3/t.fps:0;if(a>r+l&&!t._rollingBack){t.offset=a,r=a;for(var f=t._animations,s=f.length,c=0,h=0;h<s;h++)i[h]?c++:(i[h]=f[h](a,t.direction),i[h]&&c++);if(c===s)return void t._stop()}t._id=window.requestAnimationFrame(o)};this._id=window.requestAnimationFrame(o)}},{key:"_stop",value:function(){this._id&&window.cancelAnimationFrame(this._id),this._running=!1,this._rollingBack=!1}},{key:"play",value:function(){!this._rollingBack&&this._running||(this._rollingBack=!1,this.rollbackStartOffset>this.duration&&(this.offset=this.rollbackStartOffset-(this.rollbackStartOffset-this.offset)%this.duration,this.rollbackStartOffset=0),this._start(this.offset))}},{key:"stop",value:function(){this._stop(),this.offset=0,this.rollbackStartOffset=0;var t=this.direction,n=this._animations;window.requestAnimationFrame((function(){for(var r=0;r<n.length;r++)n[r](0,t)}))}},{key:"reachedToEnd",value:function(){return this.iterations>0&&this.offset>=this.iterations*this.duration}},{key:"restart",value:function(){this._stop(),this.offset=0,this._start()}},{key:"pause",value:function(){this._stop()}},{key:"reverse",value:function(){this.direction=-this.direction}}],[{key:"build",value:function(n,r){return(n=function(t,n){if(M=n,!t||!t.root||!Array.isArray(t.animations))return null;for(var r=document.getElementsByTagName("svg"),e=!1,i=0;i<r.length;i++)if(r[i].id===t.root&&!r[i].svgatorAnimation){(e=r[i]).svgatorAnimation=!0;break}if(!e)return null;var o=t.animations.map((function(t){return z(e,t)})).filter((function(t){return!!t}));return o.length?{element:e,animations:o,animationSettings:t.animationSettings,options:t.options||void 0}:null}(n,r))?{el:n.element,options:n.options||{},player:new t(n.animations,n.animationSettings,n.options)}:null}}]),t}();!function(){for(var t=0,n=["ms","moz","webkit","o"],r=0;r<n.length&&!window.requestAnimationFrame;++r)window.requestAnimationFrame=window[n[r]+"RequestAnimationFrame"],window.cancelAnimationFrame=window[n[r]+"CancelAnimationFrame"]||window[n[r]+"CancelRequestAnimationFrame"];window.requestAnimationFrame||(window.requestAnimationFrame=function(n){var r=Date.now(),e=Math.max(0,16-(r-t)),i=window.setTimeout((function(){n(r+e)}),e);return t=r+e,i},window.cancelAnimationFrame=window.clearTimeout)}();var D=/\.0+$/g;function Q(t){return Number.isInteger(t)?t+"":t.toFixed(6).replace(D,"")}function U(t){var n=arguments.length>1&&void 0!==arguments[1]?arguments[1]:" ";return t&&t.length?t.map(Q).join(n):""}function V(t){return t?null==t.a||t.a>=1?"rgb("+t.r+","+t.g+","+t.b+")":"rgba("+t.r+","+t.g+","+t.b+","+t.a+")":"transparent"}var $={f:null,i:function(t,n,r){return 0===t?n:1===t?r:{x:w(t,n.x,r.x),y:w(t,n.y,r.y)}},u:function(t,n){return function(r){var e=n(r);t.setAttribute("rx",Q(e.x)),t.setAttribute("ry",Q(e.y))}}},G={f:null,i:function(t,n,r){return 0===t?n:1===t?r:{width:w(t,n.width,r.width),height:w(t,n.height,r.height)}},u:function(t,n){return function(r){var e=n(r);t.setAttribute("width",Q(e.width)),t.setAttribute("height",Q(e.height))}}},H=Math.sin,Y=Math.cos,Z=Math.acos,J=Math.asin,K=Math.tan,W=Math.atan2,X=Math.PI/180,tt=180/Math.PI,nt=Math.sqrt,rt=function(){function t(){var r=arguments.length>0&&void 0!==arguments[0]?arguments[0]:1,e=arguments.length>1&&void 0!==arguments[1]?arguments[1]:0,i=arguments.length>2&&void 0!==arguments[2]?arguments[2]:0,o=arguments.length>3&&void 0!==arguments[3]?arguments[3]:1,u=arguments.length>4&&void 0!==arguments[4]?arguments[4]:0,a=arguments.length>5&&void 0!==arguments[5]?arguments[5]:0;n(this,t),this.m=[r,e,i,o,u,a],this.i=null,this.w=null,this.s=null}return e(t,[{key:"determinant",get:function(){var t=this.m;return t[0]*t[3]-t[1]*t[2]}},{key:"isIdentity",get:function(){if(null===this.i){var t=this.m;this.i=1===t[0]&&0===t[1]&&0===t[2]&&1===t[3]&&0===t[4]&&0===t[5]}return this.i}},{key:"point",value:function(t,n){var r=this.m;return{x:r[0]*t+r[2]*n+r[4],y:r[1]*t+r[3]*n+r[5]}}},{key:"translateSelf",value:function(){var t=arguments.length>0&&void 0!==arguments[0]?arguments[0]:0,n=arguments.length>1&&void 0!==arguments[1]?arguments[1]:0;if(!t&&!n)return this;var r=this.m;return r[4]+=r[0]*t+r[2]*n,r[5]+=r[1]*t+r[3]*n,this.w=this.s=this.i=null,this}},{key:"rotateSelf",value:function(){var t=arguments.length>0&&void 0!==arguments[0]?arguments[0]:0;if(t%=360){var n=H(t*=X),r=Y(t),e=this.m,i=e[0],o=e[1];e[0]=i*r+e[2]*n,e[1]=o*r+e[3]*n,e[2]=e[2]*r-i*n,e[3]=e[3]*r-o*n,this.w=this.s=this.i=null}return this}},{key:"scaleSelf",value:function(){var t=arguments.length>0&&void 0!==arguments[0]?arguments[0]:1,n=arguments.length>1&&void 0!==arguments[1]?arguments[1]:1;if(1!==t||1!==n){var r=this.m;r[0]*=t,r[1]*=t,r[2]*=n,r[3]*=n,this.w=this.s=this.i=null}return this}},{key:"skewSelf",value:function(t,n){if(n%=360,(t%=360)||n){var r=this.m,e=r[0],i=r[1],o=r[2],u=r[3];t&&(t=K(t*X),r[2]+=e*t,r[3]+=i*t),n&&(n=K(n*X),r[0]+=o*n,r[1]+=u*n),this.w=this.s=this.i=null}return this}},{key:"resetSelf",value:function(){var t=arguments.length>0&&void 0!==arguments[0]?arguments[0]:1,n=arguments.length>1&&void 0!==arguments[1]?arguments[1]:0,r=arguments.length>2&&void 0!==arguments[2]?arguments[2]:0,e=arguments.length>3&&void 0!==arguments[3]?arguments[3]:1,i=arguments.length>4&&void 0!==arguments[4]?arguments[4]:0,o=arguments.length>5&&void 0!==arguments[5]?arguments[5]:0,u=this.m;return u[0]=t,u[1]=n,u[2]=r,u[3]=e,u[4]=i,u[5]=o,this.w=this.s=this.i=null,this}},{key:"recomposeSelf",value:function(){var t=arguments.length>0&&void 0!==arguments[0]?arguments[0]:null,n=arguments.length>1&&void 0!==arguments[1]?arguments[1]:null,r=arguments.length>2&&void 0!==arguments[2]?arguments[2]:null,e=arguments.length>3&&void 0!==arguments[3]?arguments[3]:null,i=arguments.length>4&&void 0!==arguments[4]?arguments[4]:null;return this.isIdentity||this.resetSelf(),t&&(t.x||t.y)&&this.translateSelf(t.x,t.y),n&&this.rotateSelf(n),r&&(r.x&&this.skewSelf(r.x,0),r.y&&this.skewSelf(0,r.y)),!e||1===e.x&&1===e.y||this.scaleSelf(e.x,e.y),i&&(i.x||i.y)&&this.translateSelf(i.x,i.y),this}},{key:"decompose",value:function(){var t=arguments.length>0&&void 0!==arguments[0]?arguments[0]:0,n=arguments.length>1&&void 0!==arguments[1]?arguments[1]:0,r=this.m,e=r[0]*r[0]+r[1]*r[1],i=[[r[0],r[1]],[r[2],r[3]]],o=nt(e);if(0===o)return{origin:{x:r[4],y:r[5]},translate:{x:t,y:n},scale:{x:0,y:0},skew:{x:0,y:0},rotate:0};i[0][0]/=o,i[0][1]/=o;var u=r[0]*r[3]-r[1]*r[2]<0;u&&(o=-o);var a=i[0][0]*i[1][0]+i[0][1]*i[1][1];i[1][0]-=i[0][0]*a,i[1][1]-=i[0][1]*a;var l=nt(i[1][0]*i[1][0]+i[1][1]*i[1][1]);if(0===l)return{origin:{x:r[4],y:r[5]},translate:{x:t,y:n},scale:{x:o,y:0},skew:{x:0,y:0},rotate:0};i[1][0]/=l,i[1][1]/=l,a/=l;var f=0;return i[1][1]<0?(f=Z(i[1][1])*tt,i[0][1]<0&&(f=360-f)):f=J(i[0][1])*tt,u&&(f=-f),a=W(a,nt(i[0][0]*i[0][0]+i[0][1]*i[0][1]))*tt,u&&(a=-a),{origin:{x:r[4],y:r[5]},translate:{x:t,y:n},scale:{x:o,y:l},skew:{x:a,y:0},rotate:f}}},{key:"toString",value:function(){return null===this.s&&(this.s="matrix("+this.m.map(it).join(" ")+")"),this.s}}]),t}(),et=/\.0+$/;function it(t){return Number.isInteger(t)?t:t.toFixed(14).replace(et,"")}function ot(t,n,r){return t+(n-t)*r}function ut(t,n,r){var e=arguments.length>3&&void 0!==arguments[3]&&arguments[3],i={x:ot(t.x,n.x,r),y:ot(t.y,n.y,r)};return e&&(i.a=at(t,n)),i}function at(t,n){return Math.atan2(n.y-t.y,n.x-t.x)}Object.freeze({M:2,L:2,Z:0,H:1,V:1,C:6,Q:4,T:2,S:4,A:7});var lt={},ft=null;function st(n){var r=function(){if(ft)return ft;if("object"!==("undefined"==typeof document?"undefined":t(document)))return{};var n=document.createElementNS("http://www.w3.org/2000/svg","svg");return n.style.position="absolute",n.style.opacity="0.01",n.style.zIndex="-9999",n.style.left="-9999px",n.style.width="1px",n.style.height="1px",ft={svg:n}}().svg;if(!r)return function(t){return null};var e=document.createElementNS(r.namespaceURI,"path");e.setAttributeNS(null,"d",n),e.setAttributeNS(null,"fill","none"),e.setAttributeNS(null,"stroke","none"),r.appendChild(e);var i=e.getTotalLength();return function(t){var n=e.getPointAtLength(i*t);return{x:n.x,y:n.y}}}function ct(t){return lt[t]?lt[t]:lt[t]=st(t)}function ht(t,n,r,e){if(!t||!e)return!1;var i=["M",t.x,t.y];if(n&&r&&(i.push("C"),i.push(n.x),i.push(n.y),i.push(r.x),i.push(r.y)),n?!r:r){var o=n||r;i.push("Q"),i.push(o.x),i.push(o.y)}return n||r||i.push("L"),i.push(e.x),i.push(e.y),i.join(" ")}function vt(t,n,r,e){var i=arguments.length>4&&void 0!==arguments[4]?arguments[4]:1,o=ht(t,n,r,e),u=ct(o);try{return u(i)}catch(t){return null}}function yt(t,n,r,e){var i=1-e;return i*i*t+2*i*e*n+e*e*r}function dt(t,n,r,e){return 2*(1-e)*(n-t)+2*e*(r-n)}function gt(t,n,r,e){var i=arguments.length>4&&void 0!==arguments[4]&&arguments[4],o=vt(t,n,null,r,e);return o||(o={x:yt(t.x,n.x,r.x,e),y:yt(t.y,n.y,r.y,e)}),i&&(o.a=pt(t,n,r,e)),o}function pt(t,n,r,e){return Math.atan2(dt(t.y,n.y,r.y,e),dt(t.x,n.x,r.x,e))}function mt(t,n,r,e,i){var o=i*i;return i*o*(e-t+3*(n-r))+3*o*(t+r-2*n)+3*i*(n-t)+t}function bt(t,n,r,e,i){var o=1-i;return 3*(o*o*(n-t)+2*o*i*(r-n)+i*i*(e-r))}function wt(t,n,r,e,i){var o=arguments.length>5&&void 0!==arguments[5]&&arguments[5],u=vt(t,n,r,e,i);return u||(u={x:mt(t.x,n.x,r.x,e.x,i),y:mt(t.y,n.y,r.y,e.y,i)}),o&&(u.a=xt(t,n,r,e,i)),u}function xt(t,n,r,e,i){return Math.atan2(bt(t.y,n.y,r.y,e.y,i),bt(t.x,n.x,r.x,e.x,i))}function kt(t,n,r){var e=arguments.length>3&&void 0!==arguments[3]&&arguments[3];if(_t(n)){if(St(r))return gt(n,r.start,r,t,e)}else if(_t(r)){if(n.end)return gt(n,n.end,r,t,e)}else{if(n.end)return r.start?wt(n,n.end,r.start,r,t,e):gt(n,n.end,r,t,e);if(r.start)return gt(n,r.start,r,t,e)}return ut(n,r,t,e)}function At(t,n,r){var e=kt(t,n,r,!0);return e.a=function(t){var n=arguments.length>1&&void 0!==arguments[1]&&arguments[1];return n?t+Math.PI:t}(e.a)/p,e}function _t(t){return!t.type||"corner"===t.type}function St(t){return null!=t.start&&!_t(t)}var Ot=new rt;var Mt={f:Q,i:b},jt={f:Q,i:function(t,n,r){var e=b(t,n,r);return e<=0?0:e>=1?1:e}};function Ft(t,n,r,e,i,o,u,a){return n=function(t,n,r){for(var e,i,o,u=t.length-1,a={},l=0;l<=u;l++)(e=t[l]).e&&(e.e=n(e.e)),e.v&&"g"===(i=e.v).t&&i.r&&(o=r.getElementById(i.r))&&(a[i.r]=o.querySelectorAll("stop"));return a}(t,e,a),function(e){var i,o=r(e,t,Pt);return o?"c"===o.t?V(o.v):"g"===o.t?(n[o.r]&&function(t,n){for(var r=0,e=t.length;r<e;r++)t[r].setAttribute("stop-color",V(n[r]))}(n[o.r],o.v),(i=o.r)?"url(#"+i+")":"none"):"none":"none"}}function Pt(t,n,r){if(0===t)return n;if(1===t)return r;if(n&&r){var e=n.t;if(e===r.t)switch(n.t){case"c":return{t:e,v:A(t,n.v,r.v)};case"g":if(n.r===r.r)return{t:e,v:_(t,n.v,r.v),r:n.r}}}return m(t,n,r)}var Bt={fill:Ft,"fill-opacity":jt,stroke:Ft,"stroke-opacity":jt,"stroke-width":Mt,"stroke-dashoffset":{f:Q,i:b},"stroke-dasharray":{f:function(t){var n=arguments.length>1&&void 0!==arguments[1]?arguments[1]:" ";return t&&t.length>0&&(t=t.map((function(t){return Math.floor(1e4*t)/1e4}))),U(t,n)},i:function(t,n,r){var e,i,o,u=n.length,a=r.length;if(u!==a)if(0===u)n=S(u=a,0);else if(0===a)a=u,r=S(u,0);else{var l=(o=(e=u)*(i=a)/function(t,n){for(var r;n;)r=n,n=t%n,t=r;return t||1}(e,i))<0?-o:o;n=O(n,Math.floor(l/u)),r=O(r,Math.floor(l/a)),u=a=l}for(var f=[],s=0;s<u;s++)f.push(g(w(t,n[s],r[s]),6));return f}},opacity:jt,transform:function(n,r,e,i){if(!(n=function(n,r){if(!n||"object"!==t(n))return null;var e=!1;for(var i in n)n.hasOwnProperty(i)&&(n[i]&&n[i].length?(n[i].forEach((function(t){t.e&&(t.e=r(t.e))})),e=!0):delete n[i]);return e?n:null}(n,i)))return null;var o=function(t,i,o){var u=arguments.length>3&&void 0!==arguments[3]?arguments[3]:null;return n[t]?e(i,n[t],o):r&&r[t]?r[t]:u};return r&&r.a&&n.o?function(t){var r=e(t,n.o,At);return Ot.recomposeSelf(r,o("r",t,b,0)+r.a,o("k",t,x),o("s",t,x),o("t",t,x)).toString()}:function(t){return Ot.recomposeSelf(o("o",t,kt,null),o("r",t,b,0),o("k",t,x),o("s",t,x),o("t",t,x)).toString()}},r:Mt,"#size":G,"#radius":$,_:function(t,n){if(Array.isArray(t))for(var r=0;r<t.length;r++)this[t[r]]=n;else this[t]=n}};return function(t){!function(t,n){if("function"!=typeof n&&null!==n)throw new TypeError("Super expression must either be null or a function");t.prototype=Object.create(n&&n.prototype,{constructor:{value:t,writable:!0,configurable:!0}}),n&&o(t,n)}(u,t);var r=a(u);function u(){return n(this,u),r.apply(this,arguments)}return e(u,null,[{key:"build",value:function(t){var n=l(i(u),"build",this).call(this,t,Bt);n.el,n.options;var r=n.player;return function(t,n,r){t.play()}(r),r}}]),u}(L)}));
__SVGATOR_PLAYER__.build({"root":"e8pgLAwFKTC1","animations":[{"duration":5000,"direction":1,"iterations":0,"fill":1,"alternate":false,"speed":1,"elements":{"e8pgLAwFKTC98":{"transform":{"data":{"t":{"x":-303.275009155,"y":-246.013667585}},"keys":{"o":[{"t":0,"v":{"x":303.275009155,"y":246.013667585,"type":"corner"},"e":[0.42,0,0.58,1]},{"t":2800,"v":{"x":303.275009155,"y":240.01,"type":"corner"},"e":[0.42,0,0.58,1]},{"t":5000,"v":{"x":303.275009155,"y":246.01,"type":"corner"}}]}}},"e8pgLAwFKTC135":{"opacity":[{"t":0,"v":0},{"t":1500,"v":1},{"t":5000,"v":0}]},"e8pgLAwFKTC144":{"opacity":[{"t":0,"v":1,"e":[0.42,0,0.58,1]},{"t":4000,"v":0,"e":[0.42,0,0.58,1]},{"t":5000,"v":1}]},"e8pgLAwFKTC151":{"opacity":[{"t":0,"v":0,"e":[0.42,0,0.58,1]},{"t":3100,"v":1,"e":[0.42,0,0.58,1]},{"t":5000,"v":0}]},"e8pgLAwFKTC159":{"opacity":[{"t":0,"v":1,"e":[0.42,0,0.58,1]},{"t":2100,"v":0,"e":[0.42,0,0.58,1]},{"t":4800,"v":1}]},"e8pgLAwFKTC168":{"opacity":[{"t":0,"v":0,"e":[0.42,0,0.58,1]},{"t":1300,"v":1,"e":[0.42,0,0.58,1]},{"t":2600,"v":0,"e":[0.42,0,0.58,1]},{"t":4000,"v":1,"e":[0.42,0,0.58,1]},{"t":5000,"v":0}]},"e8pgLAwFKTC174":{"opacity":[{"t":0,"v":1,"e":[0.42,0,0.58,1]},{"t":2500,"v":0,"e":[0.42,0,0.58,1]},{"t":5000,"v":1}]},"e8pgLAwFKTC178":{"transform":{"data":{"t":{"x":-372.64860534499996,"y":-540.89}},"keys":{"o":[{"t":0,"v":{"x":372.64860534499996,"y":540.89149475,"type":"corner"},"e":[0.42,0,0.58,1]},{"t":1200,"v":{"x":372.64860534499996,"y":535.89,"type":"corner"},"e":[0.42,0,0.58,1]},{"t":2500,"v":{"x":372.64860534499996,"y":540.89,"type":"corner"},"e":[0.42,0,0.58,1]},{"t":3700,"v":{"x":372.64860534499996,"y":535.18,"type":"corner"},"e":[0.42,0,0.58,1]},{"t":5000,"v":{"x":372.64860534499996,"y":540.89,"type":"corner"}}]}}},"e8pgLAwFKTC186":{"transform":{"data":{"t":{"x":-55.862093924999996,"y":-371.65}},"keys":{"o":[{"t":0,"v":{"x":55.862093924999996,"y":365.65,"type":"corner"},"e":[0.42,0,0.58,1]},{"t":2500,"v":{"x":55.862093924999996,"y":370.65,"type":"corner"},"e":[0.42,0,0.58,1]},{"t":5000,"v":{"x":55.862093924999996,"y":365.65,"type":"corner"}}]}}},"e8pgLAwFKTC192":{"transform":{"data":{"o":{"x":55.919304847717285,"y":333.02880859375,"type":"corner"},"t":{"x":-55.919304847717285,"y":-333.02880859375}},"keys":{"r":[{"t":0,"v":0,"e":[0.42,0,0.58,1]},{"t":1800,"v":6.324607604795283,"e":[0.42,0,0.58,1]},{"t":3400,"v":-7.4958787804028075,"e":[0.42,0,0.58,1]},{"t":5000,"v":0}]}}},"e8pgLAwFKTC193":{"transform":{"data":{"o":{"x":29.149229531403805,"y":349.46468718656257,"type":"corner"},"t":{"x":-31.92092800140381,"y":-348.0260009765625}},"keys":{"r":[{"t":0,"v":0,"e":[0.42,0,0.58,1]},{"t":2400,"v":-4.546641307017159,"e":[0.42,0,0.58,1]},{"t":5000,"v":0}]}}},"e8pgLAwFKTC194":{"transform":{"data":{"o":{"x":82.14971016647948,"y":349.04856236,"type":"corner"},"t":{"x":-79.81106376647949,"y":-348.0260009765625}},"keys":{"r":[{"t":0,"v":0,"e":[0.42,0,0.58,1]},{"t":2500,"v":3.3787326659593653,"e":[0.42,0,0.58,1]},{"t":5000,"v":0}]}}}}}],"options":{"start":"load","hover":"freeze","click":"freeze","scroll":25,"font":"embed","exportedIds":"unique","svgFormat":"animated","title":"Ilustration"},"animationSettings":{"duration":5000,"direction":1,"iterations":0,"fill":1,"alternate":false,"speed":1}})]]></script></svg>